<?xml version="1.0" encoding="UTF-8" standalone="no"?>
<!-- Created with Inkscape (http://www.inkscape.org/) -->

<svg
   xmlns:dc="http://purl.org/dc/elements/1.1/"
   xmlns:cc="http://creativecommons.org/ns#"
   xmlns:rdf="http://www.w3.org/1999/02/22-rdf-syntax-ns#"
   xmlns:svg="http://www.w3.org/2000/svg"
   xmlns="http://www.w3.org/2000/svg"
   xmlns:sodipodi="http://sodipodi.sourceforge.net/DTD/sodipodi-0.dtd"
   xmlns:inkscape="http://www.inkscape.org/namespaces/inkscape"
   width="60.081333mm"
   height="59.746265mm"
   viewBox="0 0 60.081333 59.746265"
   version="1.1"
   id="svg1408"
   inkscape:version="0.92.3 (2405546, 2018-03-11)"
   sodipodi:docname="Vintage Halloween cauldron.svg">
  <title
     id="title3085">Vintage Halloween cauldron</title>
  <defs
     id="defs1402" />
  <sodipodi:namedview
     id="base"
     pagecolor="#ffffff"
     bordercolor="#666666"
     borderopacity="1.0"
     inkscape:pageopacity="0.0"
     inkscape:pageshadow="2"
     inkscape:zoom="0.35"
     inkscape:cx="663.30622"
     inkscape:cy="523.09867"
     inkscape:document-units="mm"
     inkscape:current-layer="layer1"
     showgrid="false"
     fit-margin-top="0"
     fit-margin-left="0"
     fit-margin-right="0"
     fit-margin-bottom="0"
     inkscape:window-width="1920"
     inkscape:window-height="1017"
     inkscape:window-x="3832"
     inkscape:window-y="-8"
     inkscape:window-maximized="1" />
  <metadata
     id="metadata1405">
    <rdf:RDF>
      <cc:Work
         rdf:about="">
        <dc:format>image/svg+xml</dc:format>
        <dc:type
           rdf:resource="http://purl.org/dc/dcmitype/StillImage" />
        <dc:title>Vintage Halloween cauldron</dc:title>
        <cc:license
           rdf:resource="http://creativecommons.org/publicdomain/zero/1.0/" />
      </cc:Work>
      <cc:License
         rdf:about="http://creativecommons.org/publicdomain/zero/1.0/">
        <cc:permits
           rdf:resource="http://creativecommons.org/ns#Reproduction" />
        <cc:permits
           rdf:resource="http://creativecommons.org/ns#Distribution" />
        <cc:permits
           rdf:resource="http://creativecommons.org/ns#DerivativeWorks" />
      </cc:License>
    </rdf:RDF>
  </metadata>
  <g
     inkscape:label="Layer 1"
     inkscape:groupmode="layer"
     id="layer1"
     transform="translate(69.666436,-227.49026)">
    <path
       style="fill:#000000;stroke-width:1"
       d="m -11.17127,287.2117 c -0.05625,-0.0153 -0.156936,-0.0707 -0.22374,-0.12329 -0.07598,-0.0598 -0.149038,-0.0801 -0.195101,-0.0543 -0.133853,0.0749 -0.363039,9.7e-4 -0.529769,-0.17115 -0.154286,-0.15919 -0.164858,-0.19406 -0.17329,-0.5715 -0.0049,-0.22108 0.02073,-0.7133 0.05703,-1.09383 0.0363,-0.38053 0.06519,-0.87636 0.06419,-1.10186 -9.68e-4,-0.2255 0.0118,-0.54837 0.02843,-0.71749 0.0399,-0.40562 0.03977,-0.36478 0.0048,-1.5025 -0.01672,-0.54451 -0.04407,-1.01213 -0.06077,-1.03916 -0.01672,-0.027 -0.04941,-0.3749 -0.07269,-0.77306 -0.03279,-0.56096 -0.02664,-0.77698 0.02732,-0.95958 0.04547,-0.15388 0.0553,-0.29866 0.02833,-0.41727 -0.02271,-0.0999 -0.02561,-0.22674 -0.0064,-0.28188 0.05834,-0.16768 0.02622,-2.33587 -0.03791,-2.55988 -0.03817,-0.13331 -0.04294,-0.27625 -0.01368,-0.40999 0.03943,-0.18024 0.0659,-1.31831 0.04232,-1.81968 -0.0047,-0.0987 0.0077,-0.24279 0.02743,-0.32031 0.04974,-0.19546 -0.02886,-0.17779 -0.25887,0.0582 -0.106747,0.10953 -0.297867,0.25028 -0.424708,0.31279 -0.126842,0.0625 -0.268327,0.16138 -0.314409,0.21972 -0.05106,0.0646 -0.15585,0.11175 -0.268271,0.12061 -0.101463,0.008 -0.225193,0.0347 -0.274958,0.0593 -0.04976,0.0246 -0.258874,0.0485 -0.464692,0.0532 -0.385247,0.009 -0.674682,-0.0855 -0.827032,-0.26908 -0.0368,-0.0443 -0.112947,-0.0806 -0.169209,-0.0806 -0.06019,0 -0.274472,-0.17412 -0.520529,-0.42296 -0.435569,-0.4405 -0.551407,-0.65812 -0.711986,-1.33764 -0.05096,-0.21564 -0.04755,-0.25694 0.02561,-0.31044 0.05064,-0.037 0.06832,-0.0877 0.04421,-0.12672 -0.125022,-0.20229 0.577144,-1.23595 0.839587,-1.23595 0.03666,0 0.09538,-0.0346 0.130466,-0.0769 0.07328,-0.0883 0.589131,-0.10893 0.640616,-0.0256 0.01741,0.0282 0.09745,0.0512 0.17784,0.0512 0.206432,0 0.411528,0.25345 0.411528,0.50856 0,0.19716 -0.126427,0.51643 -0.204507,0.51643 -0.0744,0 -0.15713,0.49822 -0.105346,0.63442 0.06179,0.16251 0.12639,0.19813 0.353065,0.19464 0.267286,-0.004 0.524574,-0.12886 0.683032,-0.33117 0.166192,-0.21217 0.446033,-0.80653 0.511914,-1.08726 0.02646,-0.11275 0.100068,-0.28571 0.163572,-0.38437 0.190177,-0.29542 0.303801,-0.8317 0.450641,-2.12684 0.08747,-0.77147 0.06721,-2.69376 -0.03068,-2.9123 -0.02306,-0.0515 -0.02467,-0.29363 -0.0036,-0.53812 0.02108,-0.2445 0.03946,-0.52525 0.04083,-0.62391 0.004,-0.29004 -0.05511,-1.09499 -0.09092,-1.23768 -0.01815,-0.0723 -0.0087,-0.30644 0.02104,-0.52021 0.06723,-0.48336 -0.004,-1.32272 -0.138829,-1.63485 -0.178164,-0.4126 -0.266502,-0.74615 -0.266502,-1.00626 0,-0.14283 -0.03136,-0.38189 -0.0697,-0.53124 -0.03834,-0.14936 -0.07422,-0.44135 -0.07975,-0.64887 -0.0094,-0.35401 -0.101672,-0.729 -0.361036,-1.46767 -0.04949,-0.14093 -0.141816,-0.47534 -0.205181,-0.74312 -0.06337,-0.26777 -0.193481,-0.65113 -0.289139,-0.85191 -0.09566,-0.20077 -0.173929,-0.41574 -0.173929,-0.47771 0,-0.062 -0.03398,-0.14666 -0.07552,-0.1882 -0.04153,-0.0415 -0.100967,-0.17249 -0.13207,-0.29102 -0.0311,-0.11853 -0.111149,-0.29622 -0.17788,-0.39488 -0.06673,-0.0986 -0.194406,-0.36269 -0.283722,-0.58675 -0.08931,-0.22406 -0.217436,-0.49458 -0.284717,-0.60116 -0.06728,-0.10658 -0.122326,-0.22561 -0.122326,-0.26452 0,-0.0389 -0.05766,-0.1557 -0.128124,-0.25954 -0.07047,-0.10384 -0.128124,-0.20574 -0.128124,-0.22644 0,-0.0207 -0.127529,-0.22925 -0.283398,-0.46344 -0.212899,-0.31987 -0.310298,-0.52987 -0.391508,-0.84414 -0.05946,-0.23008 -0.13949,-0.45474 -0.177846,-0.49924 -0.03835,-0.0445 -0.06974,-0.11151 -0.06974,-0.14891 0,-0.0374 -0.06104,-0.14803 -0.135641,-0.24584 -0.0746,-0.0978 -0.199867,-0.30754 -0.278365,-0.46608 -0.0785,-0.15854 -0.235861,-0.41509 -0.349695,-0.57012 -0.113835,-0.15503 -0.239689,-0.35349 -0.279674,-0.44104 -0.123407,-0.27017 -0.883434,-1.42084 -1.045798,-1.58331 -0.08451,-0.0846 -0.16881,-0.20357 -0.187341,-0.26447 -0.01854,-0.0609 -0.09045,-0.14792 -0.159826,-0.19337 -0.06937,-0.0455 -0.126352,-0.11094 -0.126623,-0.14552 -5.81e-4,-0.0346 -0.07997,-0.16666 -0.177102,-0.2935 -0.09713,-0.12684 -0.241046,-0.31616 -0.319811,-0.42069 -0.07877,-0.10454 -0.184114,-0.20429 -0.234114,-0.22166 -0.05,-0.0174 -0.179653,-0.15171 -0.288122,-0.29854 -0.108469,-0.14682 -0.286654,-0.34517 -0.395964,-0.44077 -0.10931,-0.0956 -0.283301,-0.29084 -0.386651,-0.43388 -0.395808,-0.5478 -0.597582,-0.78148 -1.106334,-1.28128 -0.289025,-0.28394 -0.525413,-0.55773 -0.525304,-0.60842 0,-0.0539 -0.06335,-0.11888 -0.152714,-0.15645 -0.08409,-0.0354 -0.311883,-0.21298 -0.50619,-0.39471 -0.59789,-0.55919 -0.701966,-0.64317 -1.013015,-0.81738 -0.165546,-0.0927 -0.404767,-0.25313 -0.531608,-0.35647 -0.126844,-0.10333 -0.341039,-0.26312 -0.475989,-0.35507 -0.134955,-0.092 -0.273112,-0.21161 -0.307015,-0.26589 -0.0339,-0.0543 -0.077,-0.0987 -0.09577,-0.0987 -0.03207,0 -0.808324,-0.50649 -0.86371,-0.56355 -0.0141,-0.0145 -0.117873,-0.0942 -0.230621,-0.17703 -0.112748,-0.0829 -0.221982,-0.17813 -0.242743,-0.21173 -0.02076,-0.0336 -0.159132,-0.13698 -0.307496,-0.22972 -0.148363,-0.0927 -0.315875,-0.208 -0.372249,-0.25614 -0.05637,-0.0481 -0.160154,-0.10439 -0.230623,-0.12499 -0.07047,-0.0206 -0.197309,-0.0877 -0.28187,-0.14922 -0.205545,-0.14939 -0.860727,-0.54899 -1.178735,-0.71891 -0.140935,-0.0753 -0.409928,-0.22488 -0.597759,-0.33238 -0.187833,-0.10751 -0.403123,-0.21092 -0.478425,-0.22982 -0.0753,-0.0189 -0.189481,-0.0911 -0.253731,-0.16042 -0.06422,-0.0693 -0.153698,-0.12605 -0.1988,-0.12605 -0.0451,0 -0.106693,-0.0461 -0.136864,-0.1025 -0.03915,-0.0731 -0.107306,-0.1025 -0.238062,-0.1025 -0.100809,0 -0.313211,-0.0664 -0.472254,-0.14761 -0.43081,-0.22002 -0.951591,-0.36613 -1.126342,-0.31602 -0.07977,0.0229 -0.286187,0.058 -0.458718,0.078 -0.172531,0.02 -0.340625,0.0689 -0.37354,0.10852 -0.03292,0.0397 -0.10389,0.0721 -0.157717,0.0721 -0.05383,0 -0.175901,0.0326 -0.271272,0.0725 -0.12468,0.0521 -0.22862,0.0597 -0.369911,0.0272 -0.12676,-0.0292 -0.301062,-0.024 -0.491062,0.0147 -0.269764,0.0549 -0.317208,0.05 -0.563744,-0.0581 -0.148055,-0.0649 -0.331018,-0.13294 -0.406586,-0.15116 -0.161413,-0.0389 -0.401062,-0.23517 -0.399936,-0.32749 0.0024,-0.19882 0.204987,-0.28566 0.629695,-0.26993 0.218556,0.008 0.413567,0.0479 0.522734,0.10667 0.16904,0.091 0.177206,0.091 0.279549,-0.002 0.05798,-0.0525 0.15695,-0.12109 0.219927,-0.15249 0.161484,-0.0805 0.175452,-0.22333 0.02735,-0.27964 -0.06663,-0.0253 -0.149717,-0.0805 -0.184635,-0.12256 -0.03492,-0.0421 -0.193954,-0.0928 -0.353412,-0.11273 -0.159458,-0.0199 -0.409678,-0.0892 -0.556046,-0.15391 -0.146368,-0.0647 -0.366911,-0.1344 -0.490095,-0.15482 -0.123187,-0.0204 -0.266498,-0.0595 -0.318473,-0.0868 -0.05197,-0.0273 -0.213409,-0.0604 -0.358745,-0.0736 -0.145336,-0.0131 -0.410815,-0.0688 -0.589955,-0.12375 -0.179138,-0.0549 -0.399586,-0.0999 -0.489884,-0.0999 -0.0903,0 -0.208946,-0.0339 -0.26366,-0.0752 -0.05472,-0.0414 -0.161256,-0.076 -0.236757,-0.0769 -0.0755,-8.9e-4 -0.168024,-0.0324 -0.205607,-0.07 -0.03758,-0.0376 -0.102653,-0.0701 -0.144598,-0.0723 -0.04194,-0.002 -0.30515,-0.064 -0.584901,-0.13727 -0.279749,-0.0733 -0.637213,-0.14648 -0.794364,-0.1626 -0.15715,-0.0161 -0.435632,-0.0708 -0.618849,-0.12139 -0.455516,-0.1259 -1.091451,-0.19912 -1.78995,-0.2061 -0.322074,-0.003 -0.608538,-0.02 -0.636586,-0.0374 -0.04976,-0.0308 -0.495185,-0.0777 -0.648424,-0.0683 -0.04228,0.003 -0.399745,0.0141 -0.794364,0.0256 -1.334676,0.0388 -1.483061,0.0679 -1.806539,0.35398 -0.09363,0.0828 -0.11531,0.15575 -0.11531,0.38805 v 0.28608 l 0.204189,0.0637 c 0.112304,0.0351 0.234346,0.0637 0.271201,0.0637 0.03686,0 0.16731,0.1022 0.289898,0.22711 0.208414,0.21235 0.22101,0.2411 0.193973,0.44268 -0.02256,0.16819 -0.08329,0.2712 -0.276279,0.46861 -0.13605,0.13917 -0.289362,0.27605 -0.340696,0.30419 -0.135878,0.0745 -0.632206,0.19751 -0.79322,0.19664 -0.141578,-7.7e-4 -0.505451,-0.11297 -0.697499,-0.21509 -0.248023,-0.13188 -0.638649,-0.59725 -0.722141,-0.86031 -0.01956,-0.0616 -0.100273,-0.24251 -0.179374,-0.40199 -0.182739,-0.36844 -0.19191,-0.71185 -0.03072,-1.15005 0.07269,-0.19761 0.104782,-0.36732 0.08448,-0.44677 l -0.03274,-0.12813 -1.266945,-0.0137 c -1.036488,-0.0112 -1.293548,5e-5 -1.413188,0.0619 -0.112872,0.0584 -0.14096,0.10326 -0.123093,0.19672 0.01797,0.094 0.08694,0.14277 0.308565,0.2181 0.380907,0.12948 0.709034,0.35334 0.807654,0.55103 0.05877,0.11781 0.09402,0.43892 0.130419,1.18805 0.05135,1.05689 0.03296,1.54657 -0.06648,1.76972 -0.09511,0.21343 -0.482557,0.54921 -0.675492,0.5854 -0.199626,0.0375 -0.213084,0.0659 -0.262171,0.5549 l -0.03473,0.34593 h 0.307208 c 0.465234,0 0.720009,0.13827 0.923183,0.50103 0.09262,0.16536 0.183085,0.90288 0.145241,1.18402 -0.03644,0.27071 -0.03856,1.32809 -0.0032,1.59545 0.06034,0.45623 -0.155608,0.6657 -0.686306,0.6657 -0.428277,0 -0.477495,0.0872 -0.426698,0.75593 0.0072,0.0942 0.03932,0.11531 0.176043,0.11531 0.229588,0 0.702289,0.17982 0.841314,0.32005 0.205969,0.20775 0.26663,0.60002 0.234769,1.51815 l -0.0287,0.8269 0.251091,-0.0288 c 0.138101,-0.0158 0.34334,-0.0487 0.456088,-0.073 0.11275,-0.0243 0.343371,-0.0597 0.512495,-0.0785 0.540976,-0.0603 0.609861,-0.07 0.891045,-0.12476 0.15183,-0.0296 0.382451,-0.0542 0.512494,-0.0547 0.466798,-0.002 1.243078,-0.26782 1.698333,-0.58213 0.696601,-0.48093 1.033622,-0.42725 0.92624,0.14754 -0.05623,0.30099 -0.346658,0.61725 -0.644707,0.70205 -0.113271,0.0322 -0.240541,0.085 -0.282821,0.11723 -0.170034,0.12968 -0.783804,0.34579 -1.112022,0.39156 -0.19172,0.0267 -0.510019,0.0711 -0.70733,0.0987 -0.19731,0.0276 -0.485588,0.0615 -0.640616,0.0755 -0.399886,0.036 -1.319965,0.16385 -1.566149,0.21766 -0.246299,0.0538 -0.535074,0.21443 -0.535074,0.29757 0,0.0324 -0.04653,0.11807 -0.103402,0.19037 -0.08327,0.10586 -0.178059,0.1435 -0.486871,0.19332 l -0.383466,0.0619 -7.75e-4,0.21077 c -3.87e-4,0.11593 -0.01385,0.25976 -0.02991,0.31962 -0.02702,0.1007 -0.0057,0.11055 0.28537,0.1316 0.29141,0.0211 0.331191,0.0395 0.540139,0.2499 0.200838,0.20226 0.234641,0.27155 0.308413,0.63229 0.0482,0.23568 0.07044,0.50362 0.05316,0.64061 -0.01633,0.12952 -0.05338,0.54369 -0.08234,0.92038 -0.02896,0.37669 -0.0832,0.75722 -0.120542,0.84562 -0.07876,0.18645 -0.533562,0.44258 -0.785879,0.44258 -0.08534,0 -0.175376,0.0288 -0.20008,0.0641 -0.04464,0.0637 -0.04395,0.58492 0.0017,1.31903 0.01859,0.29873 0.04587,0.40154 0.123109,0.46409 0.05807,0.047 0.40486,0.13 0.836162,0.20009 0.775328,0.12598 1.02307,0.19713 1.608182,0.46188 0.445626,0.20163 0.604515,0.2711 0.896864,0.39212 0.126841,0.0525 0.276746,0.13884 0.33312,0.19185 0.05637,0.053 0.177451,0.12857 0.269058,0.16792 0.09161,0.0394 0.166562,0.0955 0.166562,0.12471 0,0.0293 0.07679,0.0853 0.17064,0.12448 0.09385,0.0392 0.199775,0.1064 0.235384,0.14931 0.03561,0.0429 0.195211,0.16319 0.354667,0.26729 0.159457,0.10411 0.370638,0.26459 0.469293,0.35664 0.09865,0.092 0.306213,0.27732 0.461244,0.41172 0.155028,0.1344 0.351056,0.33023 0.435619,0.43518 0.08456,0.10494 0.281341,0.34845 0.437292,0.54112 0.5572,0.68839 1.177063,1.68791 1.177063,1.89799 0,0.0543 0.04613,0.19413 0.1025,0.31081 0.05637,0.11668 0.102497,0.24971 0.102497,0.29562 0,0.0459 0.08587,0.21285 0.190822,0.37097 l 0.19082,0.28748 0.07025,-0.22755 c 0.128961,-0.41773 0.216745,-0.83966 0.23692,-1.13873 0.01098,-0.1629 0.04421,-0.40505 0.07382,-0.53812 0.02961,-0.13306 0.08777,-0.44949 0.129231,-0.70317 0.09944,-0.60836 0.225117,-1.05234 0.333648,-1.17874 0.04841,-0.0564 0.129012,-0.20628 0.179126,-0.33312 0.149998,-0.37967 0.304242,-0.66227 0.446753,-0.81853 0.292959,-0.32122 -0.174613,-0.36165 -0.676171,-0.0585 -0.276557,0.16717 -0.334595,0.22697 -0.360637,0.37156 -0.03507,0.1947 -0.235365,0.71269 -0.301995,0.781 -0.08557,0.0877 -0.287251,-0.0151 -0.361749,-0.18436 -0.0664,-0.1509 -0.101273,-0.17141 -0.34138,-0.20071 -0.215549,-0.0263 -0.314957,-0.0741 -0.512493,-0.24643 -0.269422,-0.23504 -0.629441,-0.77876 -0.629441,-0.95062 0,-0.0601 -0.06919,-0.17553 -0.153748,-0.25654 -0.08456,-0.081 -0.153748,-0.1763 -0.153748,-0.21175 0,-0.0354 -0.07805,-0.23572 -0.173449,-0.44505 -0.139016,-0.30505 -0.177928,-0.46356 -0.196023,-0.79848 -0.02395,-0.44335 -0.07226,-0.54719 -0.231117,-0.49677 -0.19247,0.0611 -0.400281,0.71962 -0.274802,0.87081 0.03306,0.0398 0.05481,0.16215 0.04834,0.27182 -0.0065,0.10966 0.0056,0.22755 0.02692,0.26197 0.06333,0.10247 -0.06085,0.38928 -0.246415,0.56913 -0.151162,0.14651 -0.195362,0.16331 -0.344969,0.13107 -0.466019,-0.10042 -0.685436,-0.37267 -0.756508,-0.9387 -0.02909,-0.23164 -0.02798,-0.43763 0.0029,-0.54965 0.07205,-0.26095 0.849884,-1.20124 0.993697,-1.20124 0.0315,0 0.11318,-0.0598 0.181515,-0.1328 0.125675,-0.13433 0.474954,-0.32845 0.590985,-0.32845 0.03472,0 0.192662,-0.11839 0.350993,-0.2631 0.562943,-0.5145 0.935489,-0.41426 1.331703,0.35831 0.10399,0.20277 0.0716,0.39675 -0.07396,0.44295 -0.07512,0.0238 -0.102379,0.0776 -0.102379,0.20179 0,0.14359 0.0592,0.2267 0.389961,0.54747 0.214478,0.208 0.450867,0.46775 0.525305,0.57722 0.200393,0.2947 0.405973,0.60286 0.506512,0.75923 0.243308,0.37845 0.854304,0.29648 1.302185,-0.17471 0.159044,-0.16731 0.36209,-0.18532 0.718855,-0.0638 0.316698,0.10791 0.487476,0.30361 0.627342,0.71889 0.0937,0.2782 0.108293,0.3883 0.07056,0.53227 -0.05003,0.1909 -0.206095,0.36089 -0.331328,0.36089 -0.108163,0 -0.477009,0.31036 -0.560356,0.47151 -0.03937,0.0761 -0.07109,0.19143 -0.07049,0.25625 0.0021,0.2281 0.509475,1.55873 0.706964,1.8541 0.07767,0.11618 0.169759,0.25735 0.204635,0.31373 0.206201,0.33332 0.280496,0.43562 0.316367,0.43562 0.08279,0 0.428244,0.6512 0.489371,0.92249 0.03493,0.15502 0.101533,0.42024 0.148001,0.58936 0.101959,0.3711 0.171919,1.6315 0.0959,1.72781 -0.02862,0.0362 -0.06673,0.21346 -0.0847,0.3938 -0.01797,0.18033 -0.05855,0.35906 -0.09018,0.39718 -0.0814,0.0981 0.0052,0.0862 0.118349,-0.0162 0.05382,-0.0487 0.21301,-0.0954 0.369733,-0.10836 0.226383,-0.0188 0.293455,-0.005 0.378001,0.08 0.113398,0.1134 0.200669,0.57446 0.13111,0.69266 -0.02354,0.04 -0.169643,0.17544 -0.324671,0.30097 -0.15503,0.12553 -0.332942,0.31912 -0.395363,0.4302 -0.239661,0.42648 -0.271895,0.62606 -0.267256,1.65473 0.0046,1.01542 -0.03734,1.2787 -0.253429,1.59149 -0.05061,0.0733 -0.141694,0.23698 -0.202403,0.36382 -0.245257,0.51241 -0.774934,0.95962 -1.172376,0.98984 -0.243165,0.0185 -0.487544,0.14531 -0.594483,0.30852 -0.105091,0.16039 -0.07229,0.18787 0.224283,0.18787 0.205673,0 0.281295,0.0307 0.491139,0.19906 0.13642,0.10947 0.351817,0.30741 0.47866,0.43984 0.25113,0.26221 0.543659,0.43765 0.728261,0.43678 0.06454,-5.8e-4 0.232662,-0.0361 0.373599,-0.0796 0.39222,-0.12094 0.875737,-0.0172 1.015556,0.2178 0.023,0.0387 0.127146,0.12416 0.231435,0.19 0.25143,0.15872 0.36639,0.49779 0.301571,0.88949 -0.0311,0.18792 -0.06817,0.26906 -0.122927,0.26906 -0.04312,0 -0.162439,0.0664 -0.26515,0.14758 -0.177592,0.14035 -0.592546,0.31366 -0.750995,0.31366 -0.04059,0 -0.222732,-0.0804 -0.404762,-0.1787 -0.307058,-0.16579 -0.348796,-0.17528 -0.57784,-0.13145 -0.470437,0.09 -0.655566,0.17289 -0.673803,0.30161 -0.03166,0.22343 0.242408,0.40318 0.389888,0.2557 0.09201,-0.092 0.611137,-0.0605 0.798486,0.0485 0.128094,0.0745 0.16432,0.13291 0.177069,0.28542 0.01329,0.15888 -0.01087,0.21686 -0.140937,0.33837 -0.08633,0.0806 -0.156963,0.17196 -0.156963,0.20293 0,0.031 -0.0173,0.0566 -0.03844,0.057 -0.02114,5.8e-4 -0.09609,0.0466 -0.166561,0.10282 -0.07047,0.0562 -0.23624,0.18267 -0.368385,0.28111 l -0.240261,0.17898 -0.390496,-0.0543 c -0.319325,-0.0444 -0.434324,-0.0402 -0.630976,0.0233 -0.144671,0.0467 -0.393618,0.0734 -0.624851,0.0672 -0.226947,-0.006 -0.450046,0.0174 -0.544724,0.0573 -0.124616,0.0526 -0.20766,0.055 -0.37262,0.0106 -0.116743,-0.0314 -0.526979,-0.0684 -0.911629,-0.082 -0.590958,-0.021 -0.729708,-0.042 -0.895099,-0.13491 -0.210316,-0.1182 -0.453387,-0.42492 -0.453387,-0.5721 0,-0.15609 0.101625,-0.28856 0.221364,-0.28856 0.07156,0 0.219003,-0.10505 0.388874,-0.27706 0.250007,-0.25315 0.44379,-0.37691 0.839967,-0.53645 0.07884,-0.0317 0.27983,-0.0577 0.446641,-0.0577 0.166811,0 0.402114,-0.0327 0.522894,-0.0727 0.120779,-0.04 0.300318,-0.0836 0.398972,-0.097 0.191455,-0.026 0.358747,-0.0824 0.358747,-0.121 0,-0.13446 -0.683633,-0.97037 -0.874176,-1.0689 -0.08114,-0.042 -0.205645,-0.13897 -0.276675,-0.21557 l -0.129142,-0.13928 -0.152286,0.17819 c -0.08376,0.098 -0.153223,0.19144 -0.154368,0.20765 -0.0012,0.0162 -0.105863,0.16313 -0.232705,0.32648 -0.126843,0.16334 -0.230623,0.32394 -0.230623,0.35688 0,0.1419 -0.832691,0.81848 -1.51885,1.2341 -0.362398,0.2195 -0.442858,0.35323 -0.395142,0.65674 0.04467,0.28411 0.119265,0.38985 0.463684,0.65728 0.158672,0.1232 0.382701,0.30635 0.497843,0.407 0.115144,0.10065 0.293329,0.23359 0.39597,0.29543 0.230648,0.13894 0.296134,0.38049 0.173319,0.6393 -0.120433,0.25379 -0.52678,0.37267 -0.775294,0.22681 -0.252488,-0.14819 -0.757773,-0.58913 -0.893453,-0.77968 -0.08072,-0.11336 -0.228357,-0.32342 -0.328075,-0.46679 -0.09972,-0.14338 -0.262284,-0.30429 -0.361258,-0.35759 -0.09898,-0.0533 -0.179956,-0.11263 -0.179956,-0.13186 0,-0.0192 -0.09801,0.0129 -0.21781,0.0713 -0.119794,0.0584 -0.377324,0.14848 -0.572285,0.20013 -0.194963,0.0517 -0.390992,0.12666 -0.43562,0.16667 -0.04463,0.04 -0.173391,0.0888 -0.286139,0.10846 -0.112749,0.0196 -0.256076,0.0677 -0.318505,0.10683 -0.06243,0.0391 -0.177742,0.0719 -0.256248,0.0728 l -0.142738,0.002 0.120988,0.10079 c 0.06654,0.0554 0.163433,0.1008 0.215309,0.1008 0.05188,0 0.228055,0.0367 0.391505,0.0815 0.163452,0.0448 0.331778,0.0811 0.374058,0.0806 0.04228,-5.8e-4 0.157591,0.0293 0.256248,0.0663 0.09865,0.0369 0.306214,0.0946 0.461244,0.12813 0.430426,0.0931 0.561829,0.15731 0.643034,0.31434 0.152177,0.29429 0.05591,0.50782 -0.228944,0.50782 -0.06809,0 -0.153314,0.0768 -0.241834,0.21781 -0.07518,0.1198 -0.180725,0.28224 -0.234538,0.36099 -0.05381,0.0787 -0.09064,0.20558 -0.08184,0.28187 0.01767,0.15313 0.03858,0.15586 0.810366,0.10563 0.469828,-0.0306 0.479806,-0.0411 0.438401,-0.46128 -0.03385,-0.34354 -0.03075,-0.35682 0.118221,-0.50578 0.20866,-0.20866 0.342738,-0.19509 0.576731,0.0584 0.166631,0.1805 0.215993,0.20646 0.338062,0.17777 0.258825,-0.0608 0.282102,-0.057 0.324055,0.053 0.03058,0.0802 -0.0084,0.2097 -0.147606,0.49007 -0.220827,0.4448 -0.316557,0.57546 -0.809622,1.10498 l -0.366117,0.39319 -0.338731,0.0141 c -0.571331,0.0238 -1.308023,-0.22427 -1.875488,-0.63147 -0.211191,-0.15154 -0.420943,-0.27553 -0.466113,-0.27553 -0.04517,0 -0.125052,0.0474 -0.177515,0.1054 -0.06662,0.0736 -0.131986,0.0962 -0.216737,0.0749 -0.06674,-0.0168 -0.275311,-0.0315 -0.463485,-0.0327 -0.236577,-0.002 -0.389574,-0.031 -0.495885,-0.0953 -0.08456,-0.0511 -0.215869,-0.0925 -0.291793,-0.0919 -0.07592,5.8e-4 -0.214298,-0.0477 -0.307496,-0.10739 -0.275255,-0.17627 -0.505421,-0.26967 -0.766009,-0.31087 -0.134725,-0.0213 -0.274703,-0.0623 -0.311065,-0.091 -0.03636,-0.0288 -0.195281,-0.0649 -0.353151,-0.0804 -0.15812,-0.0155 -0.399801,-0.0867 -0.538117,-0.15863 -0.285331,-0.14835 -0.686701,-0.23167 -0.686701,-0.14254 0,0.0311 -0.06512,0.0902 -0.14472,0.13132 -0.07959,0.0412 -0.206606,0.16836 -0.282247,0.28266 -0.152885,0.23103 -0.365972,0.34246 -0.805936,0.42146 -0.228175,0.041 -0.343617,0.10133 -0.580706,0.30365 -0.162753,0.13888 -0.334404,0.25261 -0.38145,0.25274 -0.04705,0 -0.223911,0.12253 -0.393033,0.27201 -0.169124,0.14948 -0.381684,0.30176 -0.472356,0.3384 -0.09067,0.0367 -0.192709,0.10018 -0.226746,0.14119 -0.09375,0.11296 -0.958976,0.5197 -1.287587,0.6053 -0.225012,0.0586 -0.367959,0.0644 -0.637886,0.0259 -0.948625,-0.13545 -1.069119,-0.18588 -1.594198,-0.66719 l -0.365257,-0.33481 -0.05306,-0.37409 c -0.02918,-0.20575 -0.04126,-0.39317 -0.02685,-0.41649 0.04746,-0.0768 -0.03453,-0.2054 -0.130947,-0.2054 -0.115421,0 -0.317584,-0.0854 -0.574072,-0.24264 l -0.19277,-0.11814 -0.217223,0.0979 c -0.119473,0.0539 -0.401947,0.11388 -0.627722,0.13338 -0.361061,0.0312 -0.425871,0.0235 -0.538119,-0.0639 -0.07019,-0.0547 -0.231398,-0.14525 -0.358241,-0.20129 -0.360145,-0.1591 -0.948951,-0.55958 -1.055158,-0.71767 -0.254401,-0.37867 -0.397755,-0.88753 -0.401294,-1.42447 -0.0021,-0.3217 0.02007,-0.40373 0.214929,-0.79437 0.119514,-0.23959 0.250454,-0.49327 0.29098,-0.56374 0.04053,-0.0705 0.08574,-0.16844 0.100469,-0.2177 0.01474,-0.0493 0.131308,-0.16326 0.259058,-0.2533 0.128544,-0.0906 0.232271,-0.20483 0.232271,-0.25577 0,-0.13532 -0.15165,-0.29128 -0.384371,-0.39531 -0.231508,-0.10348 -0.743113,-0.58115 -0.743113,-0.69381 0,-0.0407 -0.131768,-0.18491 -0.292814,-0.32056 -0.502734,-0.42346 -1.004244,-0.95329 -1.25748,-1.32848 -0.133888,-0.19836 -0.243434,-0.38432 -0.243434,-0.41324 0,-0.0289 -0.08072,-0.20469 -0.179372,-0.39059 -0.09865,-0.18591 -0.179372,-0.3808 -0.179372,-0.43309 0,-0.0523 -0.01941,-0.117 -0.04313,-0.14377 -0.02372,-0.0268 -0.09213,-0.21013 -0.152022,-0.40744 -0.156381,-0.51518 -0.128854,-1.37351 0.05688,-1.77359 0.277037,-0.59675 0.283237,-0.62105 0.255091,-0.99971 -0.01799,-0.24199 -0.0077,-0.37656 0.03054,-0.40021 0.08398,-0.0519 0.07048,-0.21136 -0.02458,-0.29025 -0.04522,-0.0375 -0.101591,-0.1192 -0.125276,-0.18149 -0.02632,-0.0692 -0.158781,-0.16591 -0.340594,-0.24861 -0.212165,-0.0965 -0.368131,-0.21901 -0.543598,-0.42696 -0.277765,-0.32918 -0.650795,-0.88971 -0.650795,-0.97791 0,-0.0321 -0.06919,-0.18097 -0.153748,-0.3308 -0.08456,-0.14984 -0.153748,-0.33054 -0.153748,-0.40157 0,-0.071 -0.0228,-0.19601 -0.05067,-0.27773 -0.114687,-0.33631 -0.14611,-0.82006 -0.07496,-1.15394 0.09679,-0.4542 0.34623,-1.11298 0.532821,-1.4072 0.0861,-0.13577 0.156547,-0.26115 0.156547,-0.27864 0,-0.0175 -0.132608,-0.0866 -0.294683,-0.15353 -0.162077,-0.067 -0.325159,-0.15192 -0.362406,-0.1888 -0.03725,-0.0369 -0.101736,-0.0671 -0.143305,-0.0671 -0.121286,0 -0.806039,-0.33743 -0.897584,-0.44231 -0.04599,-0.0527 -0.100125,-0.14986 -0.120291,-0.21593 -0.02017,-0.0661 -0.104188,-0.22016 -0.186713,-0.34244 -0.164375,-0.24356 -0.403735,-0.75599 -0.403735,-0.86433 0,-0.0376 -0.0716,-0.15802 -0.159112,-0.2676 -0.144549,-0.181 -0.156613,-0.22387 -0.131814,-0.46842 0.02711,-0.26728 0.0468,-0.31843 0.309044,-0.80257 0.124662,-0.23014 0.618116,-0.74653 0.714096,-0.74728 0.02219,-1.5e-4 0.139511,-0.10234 0.260708,-0.22705 0.386953,-0.39814 0.75668,-0.36348 0.950292,0.0891 0.05705,0.13337 0.10137,0.39928 0.117158,0.70297 0.02696,0.5185 0.09457,0.72126 0.336952,1.01051 0.121756,0.1453 0.201037,0.17956 0.622771,0.26906 0.265788,0.0564 0.64129,0.10257 0.834446,0.10257 0.193595,0 0.432387,0.0339 0.53212,0.0756 0.226821,0.0948 0.730831,0.6133 0.768628,0.79077 0.04425,0.20778 0.18545,0.52804 0.307176,0.69674 0.136381,0.189 0.183033,0.57594 0.111022,0.9208 -0.04925,0.23586 -0.04217,0.28096 0.08278,0.52699 0.07515,0.14798 0.169337,0.26906 0.209305,0.26906 0.03997,0 0.195247,-0.12203 0.345069,-0.27118 0.335561,-0.33405 0.974529,-0.67685 1.118261,-0.59993 0.150589,0.0806 0.169722,0.23824 0.0725,0.5974 -0.0628,0.232 -0.07344,0.3441 -0.03494,0.3679 0.03046,0.0188 0.09572,0.13794 0.145022,0.2647 0.123949,0.3187 0.132259,0.32613 0.482,0.43089 0.26172,0.0784 0.335312,0.0829 0.465916,0.0289 0.145966,-0.0605 0.304233,-0.31511 0.304233,-0.4895 0,-0.0376 0.05732,-0.15282 0.127389,-0.25606 0.07007,-0.10325 0.148997,-0.25995 0.175404,-0.34821 0.115401,-0.38575 0.32194,-0.88813 0.413627,-1.00611 0.05477,-0.0705 0.159272,-0.24343 0.232234,-0.38436 0.267887,-0.51746 0.328604,-0.59754 0.836727,-1.10353 0.284827,-0.28364 0.625719,-0.65298 0.757536,-0.82076 0.131816,-0.16779 0.254558,-0.30506 0.272762,-0.30506 0.01821,0 0.169471,-0.11531 0.336154,-0.25625 0.166683,-0.14093 0.330447,-0.25624 0.36392,-0.25624 0.03347,0 0.134924,-0.0692 0.225447,-0.15375 0.09052,-0.0846 0.1799,-0.15375 0.198613,-0.15375 0.01871,0 0.171946,-0.1034 0.340514,-0.22979 0.327532,-0.24557 1.383724,-0.79294 1.574995,-0.81625 0.06337,-0.008 0.207474,-0.0543 0.320222,-0.10358 0.325878,-0.14234 0.638976,-0.23756 1.024987,-0.31173 0.197309,-0.0379 0.484847,-0.10514 0.638972,-0.1494 0.154126,-0.0443 0.39628,-0.0813 0.538119,-0.0822 0.36604,-0.002 0.490423,-0.11664 0.481371,-0.44204 -0.0038,-0.13647 -0.0017,-0.44838 0.0046,-0.69313 0.0075,-0.28924 -0.01269,-0.49554 -0.0575,-0.58937 -0.06123,-0.12819 -0.102488,-0.14734 -0.368304,-0.17101 -0.250928,-0.0223 -0.321793,-0.0518 -0.43811,-0.18195 -0.124839,-0.13972 -0.145239,-0.21934 -0.203289,-0.79334 -0.03549,-0.35092 -0.06813,-0.99626 -0.07253,-1.43409 -0.0076,-0.75903 -0.0024,-0.80388 0.111934,-0.96448 0.06596,-0.0926 0.169116,-0.19089 0.229223,-0.21833 0.06011,-0.0274 0.166942,-0.0832 0.23741,-0.12381 0.07047,-0.0406 0.190735,-0.0742 0.267257,-0.0747 0.170363,-9.7e-4 0.245238,-0.1253 0.245238,-0.40738 v -0.20837 h -0.329189 c -0.279378,0 -0.353048,-0.0201 -0.486868,-0.13268 -0.08672,-0.073 -0.15768,-0.16164 -0.15768,-0.19705 0,-0.0354 -0.04613,-0.10612 -0.102499,-0.15713 -0.05637,-0.051 -0.1025,-0.12378 -0.1025,-0.1617 0,-0.0971 -0.07151,-0.0856 -0.174359,0.028 -0.0557,0.0616 -0.19427,0.11027 -0.379447,0.13341 -0.160435,0.02 -0.355905,0.0696 -0.434376,0.11022 -0.07847,0.0406 -0.293525,0.12038 -0.477897,0.17732 -0.184371,0.057 -0.441037,0.18431 -0.570369,0.28304 -0.129331,0.0987 -0.351247,0.23832 -0.493145,0.31023 -0.346352,0.17551 -0.789522,0.634 -1.006493,1.04129 -0.207797,0.39008 -0.209215,0.42011 -0.110485,2.33854 0.0783,1.52138 0.04646,1.68053 -0.457483,2.28698 -0.134802,0.16223 -0.421377,0.46076 -0.636833,0.66342 -0.378136,0.35566 -0.580266,0.6306 -0.513043,0.69782 0.01776,0.0178 0.09442,-0.007 0.17034,-0.0553 0.07592,-0.0482 0.287935,-0.16127 0.47115,-0.2513 0.183217,-0.09 0.404485,-0.21719 0.491707,-0.28258 0.08722,-0.0654 0.191002,-0.11963 0.230621,-0.12052 0.03962,-9.7e-4 0.116804,-0.0355 0.17152,-0.0769 0.05471,-0.0414 0.137338,-0.0752 0.183607,-0.0752 0.131716,0 0.62038,-0.63514 0.684152,-0.88923 0.02126,-0.0847 0.08961,-0.16143 0.174469,-0.19586 0.07674,-0.0311 0.26123,-0.11108 0.409982,-0.17763 0.148755,-0.0666 0.311343,-0.12101 0.361309,-0.12101 0.216871,0 0.287476,0.27622 0.111348,0.43561 -0.05637,0.051 -0.102499,0.14106 -0.102499,0.20008 0,0.0648 -0.127274,0.22921 -0.321127,0.41487 -0.176622,0.16915 -0.459272,0.45745 -0.628115,0.64067 -0.355866,0.38616 -0.602365,0.60987 -0.81886,0.74317 -0.430027,0.26477 -0.680591,0.43709 -0.740481,0.50926 -0.03773,0.0455 -0.146748,0.0802 -0.252344,0.0804 -0.251515,5.8e-4 -0.817006,0.0916 -1.005899,0.16194 -0.08456,0.0315 -0.245996,0.0967 -0.358746,0.14485 -0.685977,0.29301 -1.27733,0.39315 -1.341051,0.2271 -0.03418,-0.0891 0.06811,-0.48235 0.125937,-0.48416 0.02001,-5.8e-4 0.09403,-0.0471 0.164502,-0.10334 0.127064,-0.10134 0.126076,-0.10133 -0.11956,0.001 -0.391156,0.16319 -0.546681,0.11806 -0.546681,-0.15861 0,-0.15414 0.232113,-0.38336 0.473368,-0.46746 0.07789,-0.0272 0.141624,-0.071 0.141624,-0.0974 0,-0.0264 0.09948,-0.0907 0.221068,-0.14282 0.121589,-0.0521 0.351813,-0.2185 0.511612,-0.36974 0.159797,-0.15124 0.410504,-0.36722 0.557126,-0.47997 0.673543,-0.51794 0.879739,-0.84123 0.88488,-1.38741 0.003,-0.32232 -0.0136,-0.38688 -0.150337,-0.58353 -0.08456,-0.12161 -0.176514,-0.2641 -0.204338,-0.31664 -0.02782,-0.0525 -0.07585,-0.0955 -0.106734,-0.0955 -0.05942,0 -0.380406,-0.37492 -0.381347,-0.44542 -3.88e-4,-0.0228 -0.129383,-0.26054 -0.28684,-0.52831 -0.157458,-0.26778 -0.377541,-0.74583 -0.489077,-1.06233 -0.195678,-0.55527 -0.201599,-0.59123 -0.168817,-1.02499 0.03501,-0.46328 0.03549,-0.46447 0.415374,-1.04068 0.138901,-0.21068 1.012465,-1.1257 1.0747,-1.1257 0.01881,0 0.160266,-0.10378 0.314339,-0.23062 0.154074,-0.12684 0.300494,-0.23062 0.325378,-0.23062 0.06745,0 0.559327,-0.36023 0.750971,-0.54998 0.09205,-0.0911 0.24196,-0.20388 0.33312,-0.25051 0.09116,-0.0466 0.246465,-0.14785 0.345122,-0.22492 0.234966,-0.18356 0.634435,-0.3858 0.922488,-0.46703 0.126841,-0.0358 0.299808,-0.11547 0.384369,-0.17711 0.318322,-0.23204 0.457759,-0.27656 0.723781,-0.23106 0.519281,0.0888 0.764856,0.2876 0.667778,0.54058 -0.03967,0.10339 -0.626387,0.39008 -1.212187,0.59232 -0.267776,0.0924 -0.528242,0.20372 -0.578811,0.24726 -0.142541,0.12274 -0.08536,0.26557 0.154577,0.38611 0.15522,0.078 0.216787,0.1408 0.21781,0.22222 0.0016,0.12159 -0.132282,0.21961 -0.299783,0.21961 -0.201096,0 -1.053341,0.31978 -1.378153,0.51711 -0.181411,0.11021 -0.340621,0.20038 -0.353802,0.20038 -0.18651,0 -1.315217,1.10379 -1.527904,1.49417 -0.127013,0.23313 -0.128296,0.24573 -0.05635,0.55413 0.08377,0.35908 0.132553,0.444 0.449969,0.78323 0.250504,0.26772 0.348571,0.30372 0.349054,0.12812 1.53e-4,-0.0634 0.03203,-0.17609 0.07079,-0.25038 0.03876,-0.0743 0.121192,-0.29894 0.183175,-0.4992 0.06198,-0.20027 0.133904,-0.37724 0.159826,-0.39326 0.02592,-0.016 0.04713,-0.0651 0.04713,-0.10902 0,-0.0439 0.06655,-0.15569 0.147886,-0.24833 0.08134,-0.0926 0.211844,-0.28595 0.290015,-0.42958 0.07817,-0.14362 0.158595,-0.26114 0.178718,-0.26114 0.02012,0 0.191333,-0.12684 0.380466,-0.28187 0.189135,-0.15503 0.364833,-0.28187 0.390443,-0.28187 0.02561,0 0.156311,-0.0838 0.290443,-0.18624 0.134134,-0.10243 0.301534,-0.21067 0.372002,-0.24053 0.07047,-0.0299 0.162716,-0.0821 0.204996,-0.11616 0.04228,-0.034 0.157593,-0.0858 0.256248,-0.11508 0.09865,-0.0293 0.279905,-0.09 0.40278,-0.1349 0.122876,-0.0449 0.267106,-0.0678 0.32051,-0.0509 0.109,0.0346 0.32409,0.0662 0.486729,0.0715 0.05949,0.002 0.190435,0.0594 0.290991,0.1276 l 0.182832,0.12408 -0.0038,-0.49563 c -0.0073,-0.93917 0.09512,-2.25333 0.186442,-2.39271 0.121457,-0.18536 0.462319,-0.38352 0.659719,-0.38352 0.260663,0 0.41342,-0.16867 0.379794,-0.41937 -0.03776,-0.28151 -0.112004,-0.34937 -0.382254,-0.34937 -0.269152,0 -0.617175,-0.0899 -0.736205,-0.1902 -0.09978,-0.0841 -0.222236,-0.62077 -0.185493,-0.81298 0.01441,-0.0754 0.0076,-0.20913 -0.01523,-0.29723 -0.02278,-0.0881 -0.05218,-0.44829 -0.06533,-0.80042 -0.02813,-0.75297 0.06391,-1.49418 0.20526,-1.65295 0.12419,-0.1395 0.382184,-0.24367 0.60349,-0.24367 h 0.181019 v -0.50651 c 0,-0.55409 -0.0082,-0.56712 -0.359661,-0.56902 -0.17447,-9.7e-4 -0.492172,-0.22451 -0.591211,-0.41604 -0.133222,-0.25762 -0.173521,-0.6703 -0.184237,-1.88668 -0.0095,-1.08069 -0.0032,-1.17089 0.09573,-1.36231 0.09352,-0.181 0.147689,-0.21947 0.46259,-0.32864 l 0.356663,-0.12364 -0.04822,-0.18996 c -0.04791,-0.18875 -0.05023,-0.19014 -0.363889,-0.21858 -0.17362,-0.0157 -0.569403,-0.008 -0.87952,0.0162 -0.891886,0.071 -2.198872,0.0715 -2.888642,0.001 -0.348461,-0.0356 -0.724945,-0.05 -0.836631,-0.0322 -0.111686,0.0179 -0.333951,0.006 -0.493921,-0.0273 -0.203625,-0.0418 -0.361913,-0.0444 -0.527804,-0.009 -0.13777,0.0296 -0.36301,0.034 -0.538117,0.0104 -0.492484,-0.0662 -0.919742,-0.10212 -1.813024,-0.15234 -1.134853,-0.0638 -1.53802,-0.11405 -2.024348,-0.25231 -0.225496,-0.0641 -0.540907,-0.14497 -0.700909,-0.17971 -0.340675,-0.074 -0.658096,-0.23 -0.925117,-0.45475 -0.105075,-0.0884 -0.272277,-0.2265 -0.371557,-0.30679 -0.09928,-0.0803 -0.180514,-0.17425 -0.180514,-0.20879 0,-0.0345 -0.08072,-0.17634 -0.179372,-0.3151 -0.09865,-0.13876 -0.179372,-0.27394 -0.179372,-0.3004 0,-0.0265 -0.04221,-0.0957 -0.09379,-0.15391 -0.196935,-0.22215 -0.294491,-0.82799 -0.213095,-1.32334 0.04952,-0.30134 0.09239,-0.40494 0.227857,-0.55056 0.09178,-0.0987 0.180455,-0.21839 0.197066,-0.26608 0.01662,-0.0477 0.08366,-0.12172 0.148993,-0.16453 0.06534,-0.0428 0.229504,-0.18093 0.364819,-0.30695 0.274447,-0.25558 0.535291,-0.33868 1.063047,-0.33868 0.288349,0 0.319678,0.0125 0.5397,0.21531 0.128468,0.11842 0.316396,0.34007 0.417617,0.49257 0.154273,0.23242 0.174331,0.2928 0.124019,0.37336 -0.03301,0.0529 -0.06002,0.12286 -0.06002,0.15556 0,0.0327 -0.08343,0.18514 -0.1854,0.33877 -0.209781,0.31605 -0.197416,0.35246 0.159776,0.47051 0.112749,0.0373 0.239591,0.0967 0.281871,0.13205 0.04228,0.0354 0.192186,0.0799 0.333121,0.0989 0.140936,0.019 0.360027,0.066 0.486868,0.10449 0.286972,0.087 1.889594,0.14054 2.020083,0.0675 0.06102,-0.0341 0.398807,-0.0305 1.021456,0.0111 0.511656,0.0342 1.126313,0.0571 1.365904,0.0509 0.755327,-0.0195 0.973956,-0.0147 2.024349,0.0447 0.563743,0.0319 1.088408,0.0577 1.165922,0.0574 0.07751,-3.1e-4 0.227419,-10e-4 0.33312,-0.002 0.67974,-0.004 1.089485,0.0134 1.269842,0.0538 0.126161,0.0283 0.342865,0.0271 0.555416,-0.003 0.191697,-0.0272 0.367827,-0.0374 0.3914,-0.0229 0.02357,0.0146 0.523262,0.0368 1.110418,0.0495 0.587156,0.0127 1.171336,0.0423 1.298177,0.0658 0.126842,0.0235 0.599299,0.0286 1.049903,0.0112 0.450606,-0.0173 0.91185,-0.0133 1.024988,0.009 0.113139,0.0223 0.909101,0.0271 1.76881,0.0108 0.859708,-0.0164 1.609229,-0.0269 1.665603,-0.0235 0.298321,0.018 5.474707,0.005 7.738649,-0.0201 3.429901,-0.0375 6.926152,-0.0474 9.019884,-0.0258 3.748228,0.0388 3.740888,0.0385 4.026475,0.12919 0.05237,0.0166 0.141586,0.005 0.198248,-0.0249 0.05666,-0.0303 0.201671,-0.0552 0.322241,-0.0554 0.120573,-1.5e-4 0.472908,3.1e-4 0.782967,0.001 0.310057,7e-4 0.609867,-4.7e-4 0.666241,-0.003 0.05637,-0.002 0.425369,0.0143 0.819988,0.0363 0.39462,0.0221 0.878928,0.034 1.076236,0.0265 0.197311,-0.008 0.416401,-0.0124 0.486869,-0.0108 0.07047,0.002 0.474057,0.002 0.896863,0.001 0.519458,-0.001 0.846431,0.0219 1.008322,0.0708 0.141832,0.0429 0.319554,0.0593 0.43562,0.0402 0.107818,-0.0177 0.910966,-0.0314 1.784766,-0.0305 1.492936,0.002 1.613135,0.009 1.993498,0.1176 0.633502,0.18123 1.053895,0.45468 1.67083,1.08679 0.24197,0.24792 0.35974,0.41708 0.430398,0.61818 0.0535,0.15227 0.115849,0.30098 0.138537,0.33047 0.022693,0.0295 0.040788,0.0987 0.040209,0.15374 -5.811e-4,0.0551 0.033928,0.43454 0.076679,0.84326 0.067752,0.64761 0.093946,1.49132 0.082558,2.65883 -0.00174,0.17985 -0.027234,0.37192 -0.05662,0.42683 -0.039421,0.0737 -0.03202,0.15334 0.028228,0.30393 0.085146,0.2128 0.098317,0.69468 0.021663,0.79257 -0.068833,0.0879 -0.066039,1.48539 0.00384,1.93301 0.034434,0.22048 0.04678,0.43957 0.027439,0.48687 -0.027065,0.0662 -0.089287,2.07217 -0.082147,2.64846 0.00595,0.4801 0.046493,1.09314 0.075397,1.13991 0.038079,0.0616 0.042511,0.2231 0.031335,1.14068 -0.00395,0.32416 0.00953,0.85459 0.029975,1.17874 0.020439,0.32415 0.034,0.67009 0.03013,0.76874 -0.00384,0.0986 -0.00664,0.34968 -0.00616,0.55782 5.811e-4,0.20815 -0.019002,0.40418 -0.043295,0.43562 -0.024286,0.0314 -0.028454,0.41872 -0.00926,0.8606 0.019196,0.44189 0.018653,0.9262 -0.00116,1.07624 -0.019901,0.15036 -0.014469,0.31439 0.012087,0.36546 0.064395,0.12379 0.071498,0.64348 0.023606,1.7267 -0.021807,0.49327 -0.037669,0.91992 -0.035245,0.94811 0.051348,0.59699 0.053397,0.87186 0.00831,1.11572 -0.040229,0.21762 -0.039026,0.32993 0.00457,0.42559 0.04507,0.0989 0.044219,0.2192 -0.00354,0.50353 -0.045724,0.27212 -0.048157,0.43875 -0.00897,0.61364 0.042426,0.18929 0.038376,0.2699 -0.019137,0.38111 -0.049019,0.0948 -0.057215,0.16911 -0.025005,0.22667 0.026359,0.0471 0.050553,0.30007 0.053761,0.56216 0.00323,0.26209 0.022986,0.49958 0.043952,0.52777 0.020966,0.0282 0.018847,0.2934 -0.00471,0.58937 -0.04119,0.51749 -0.018692,1.99327 0.031145,2.04311 0.013288,0.0133 -0.010111,0.062 -0.052008,0.10835 -0.055402,0.0612 -0.064426,0.12525 -0.033091,0.23478 0.03392,0.11854 0.06978,1.65998 0.073255,3.14869 0.00174,0.76127 -0.086432,3.16725 -0.1183709,3.2287 -0.021975,0.0423 -0.018808,0.21083 0.00703,0.37455 0.025841,0.16372 0.029161,0.32515 0.00738,0.35874 -0.021785,0.0336 -0.041318,0.85673 -0.043398,1.82918 -0.00211,0.97246 -0.021898,2.04485 -0.044043,2.3831 -0.022145,0.33824 -0.043782,1.13389 -0.048082,1.7681 -0.0043,0.63421 -0.022136,1.17617 -0.039627,1.20436 -0.0308,0.0496 -0.00252,0.29596 0.1044363,0.90972 0.035962,0.20633 0.034486,0.34314 -0.00492,0.45615 -0.041306,0.1185 -0.040568,0.22414 0.00277,0.39715 0.032477,0.12964 0.070601,0.53205 0.084716,0.89424 0.014121,0.3622 0.035987,0.67523 0.048589,0.69562 0.025506,0.0413 0.047743,1.31142 0.038195,2.18205 -0.00339,0.31005 -0.00796,0.73671 -0.01013,0.94811 -0.00221,0.2114 0.011138,0.62652 0.029572,0.92249 0.026802,0.43017 0.050751,2.59929 0.033665,3.04933 -0.00215,0.0564 0.00558,0.2524 0.017162,0.43562 0.069536,1.10031 0.064507,1.23424 -0.051003,1.35888 -0.2239752,0.24168 -1.1144744,0.44953 -1.4897784,0.34773 z m -0.0771,-2.68034 c 0,-0.0282 -0.02306,-0.0512 -0.05125,-0.0512 -0.02819,0 -0.05125,0.0231 -0.05125,0.0512 0,0.0282 0.02306,0.0512 0.05125,0.0512 0.02819,0 0.05125,-0.0231 0.05125,-0.0512 z m -45.662886,-5.84172 c 0.07062,-5.8e-4 0.260025,-0.0842 0.420901,-0.18634 0.305034,-0.19359 0.440754,-0.42148 0.374788,-0.62932 -0.08086,-0.25478 -0.464279,-0.57288 -0.771693,-0.64024 -0.292522,-0.0641 -1.03575,0.15181 -1.198778,0.34824 -0.03619,0.0436 -0.06313,0.21421 -0.06227,0.39436 0.0014,0.30344 0.01001,0.32455 0.193123,0.47661 0.193437,0.16063 0.620048,0.29583 0.813033,0.25766 0.05637,-0.0112 0.160278,-0.0206 0.230894,-0.021 z m -0.470566,-0.34809 c -0.07545,-0.0498 -0.18795,-0.15502 -0.250009,-0.23392 -0.09323,-0.11852 -0.103173,-0.16464 -0.05723,-0.26547 0.08639,-0.18961 0.310665,-0.2826 0.551217,-0.22854 0.235076,0.0528 0.585064,0.19268 0.585064,0.23381 0,0.0667 -0.274027,0.38026 -0.332292,0.38026 -0.03514,0 -0.122518,0.0461 -0.194186,0.1025 -0.156597,0.12318 -0.134275,0.12234 -0.302562,0.0113 z m 1.839777,-1.18151 c -0.04056,-0.047 -0.09754,-0.1566 -0.126627,-0.24356 -0.02909,-0.087 -0.147588,-0.28299 -0.263329,-0.43562 -0.230991,-0.30463 -0.302556,-0.54167 -0.213674,-0.70774 0.077,-0.14388 0.236267,-0.13625 0.422229,0.0202 0.08375,0.0705 0.184277,0.12812 0.223404,0.12812 0.03913,0 0.09568,0.0458 0.12567,0.10189 0.02999,0.056 0.117288,0.11735 0.193988,0.13624 0.0767,0.0189 0.185581,0.0639 0.241957,0.10003 0.05637,0.0361 0.218464,0.0809 0.360201,0.0995 0.249162,0.0327 0.457395,-0.0296 0.792908,-0.23711 0.04228,-0.0262 0.128765,-0.0741 0.192185,-0.10665 0.148071,-0.0759 0.147445,-0.23595 -0.0017,-0.45788 -0.09919,-0.1475 -0.156022,-0.17901 -0.371558,-0.20601 -0.139951,-0.0175 -0.323643,-0.0539 -0.408203,-0.0809 -0.08456,-0.027 -0.408369,-0.0472 -0.719572,-0.045 -0.558448,0.004 -0.568565,0.006 -0.776116,0.17063 -0.115659,0.0916 -0.268625,0.16655 -0.339919,0.16655 -0.0713,0 -0.200118,0.0593 -0.286269,0.13181 -0.08615,0.0725 -0.312536,0.21702 -0.503077,0.32117 -0.190541,0.10415 -0.353728,0.22722 -0.362638,0.27349 -0.02001,0.10389 0.212561,0.16453 0.578871,0.15095 0.140935,-0.005 0.33547,0.0139 0.432296,0.0426 0.178388,0.0528 0.515005,0.33635 0.516791,0.43539 5.81e-4,0.0297 0.07491,0.16931 0.165285,0.31025 0.145351,0.22668 0.16641,0.24245 0.182516,0.13671 0.01001,-0.0658 -0.01497,-0.15799 -0.05553,-0.205 z m -3.362972,-0.54328 c 0.09578,-0.0686 0.348955,-0.231 0.562622,-0.36092 0.213666,-0.12991 0.580267,-0.39091 0.814671,-0.57998 0.234402,-0.18906 0.504658,-0.3967 0.600568,-0.4614 0.22964,-0.15492 0.257647,-0.24633 0.120271,-0.39257 -0.27898,-0.29696 -0.66245,-0.18824 -1.162409,0.32956 -0.163977,0.16982 -0.324811,0.30878 -0.357408,0.30878 -0.0326,0 -0.0942,0.0519 -0.136902,0.11531 -0.0427,0.0634 -0.205289,0.24792 -0.361311,0.40999 -0.221306,0.2299 -0.317392,0.29469 -0.437032,0.29469 -0.179045,0 -0.365795,-0.20061 -0.365795,-0.39293 0,-0.16057 0.13375,-0.47831 0.201341,-0.47831 0.02905,0 0.09843,-0.0894 0.15418,-0.19868 0.05575,-0.10927 0.134069,-0.21123 0.17405,-0.22657 0.03998,-0.0153 0.143021,-0.1321 0.228978,-0.25947 0.08596,-0.12736 0.207757,-0.30119 0.270666,-0.38628 0.09495,-0.12842 0.103238,-0.16812 0.0488,-0.23372 -0.03607,-0.0435 -0.105302,-0.079 -0.153857,-0.079 -0.276754,0 -1.215199,-0.81555 -1.572444,-1.36653 -0.10665,-0.16449 -0.254986,-0.37978 -0.329636,-0.47844 -0.07465,-0.0987 -0.207582,-0.31775 -0.295407,-0.48687 -0.165273,-0.31826 -0.445295,-0.58937 -0.608753,-0.58937 -0.05161,0 -0.147434,0.0375 -0.212942,0.0834 -0.09847,0.069 -0.152036,0.0736 -0.309156,0.0265 -0.104528,-0.0313 -0.238462,-0.10922 -0.297633,-0.17312 -0.123247,-0.13308 -0.37298,-0.72213 -0.373483,-0.88093 -1.94e-4,-0.0586 -0.04616,-0.17566 -0.102163,-0.26022 -0.056,-0.0846 -0.101974,-0.191 -0.10216,-0.23653 -1.94e-4,-0.0455 -0.04294,-0.13777 -0.09502,-0.205 -0.05208,-0.0672 -0.109253,-0.17987 -0.127062,-0.25034 -0.0178,-0.0705 -0.08382,-0.20884 -0.146695,-0.3075 -0.124694,-0.19565 -0.219544,-0.48874 -0.296126,-0.91505 -0.02712,-0.15094 -0.07579,-0.30636 -0.108171,-0.34537 -0.03495,-0.0421 -0.04568,-0.14124 -0.02642,-0.24393 0.02412,-0.12857 0.0075,-0.20384 -0.06476,-0.29306 l -0.09722,-0.12006 -0.02512,0.20281 c -0.04653,0.37567 0.02801,1.07152 0.120931,1.12895 0.02493,0.0154 0.04534,0.0912 0.04534,0.16849 0,0.0773 0.02776,0.16824 0.06169,0.20217 0.03393,0.0339 0.08989,0.15962 0.124356,0.27931 0.03447,0.11969 0.123074,0.42517 0.196908,0.67886 0.07383,0.25368 0.147728,0.5189 0.164206,0.58937 0.01648,0.0705 0.06143,0.1644 0.09988,0.20874 0.03845,0.0443 0.08532,0.19298 0.104144,0.33032 0.01883,0.13733 0.08813,0.32913 0.154012,0.42621 0.06588,0.0971 0.119785,0.21397 0.119785,0.25976 0,0.0458 0.136927,0.23496 0.304282,0.42039 0.231888,0.25693 0.395745,0.38174 0.688706,0.52459 0.211433,0.1031 0.407733,0.18745 0.436224,0.18745 0.07091,0 0.313264,0.3247 0.313264,0.41971 0,0.11477 -0.163409,0.24091 -0.362107,0.27951 -0.09681,0.0188 -0.323813,0.11072 -0.504464,0.20423 -0.354398,0.18346 -0.517509,0.39719 -0.426812,0.55925 0.05107,0.0913 0.462745,0.26112 0.806515,0.3328 0.260009,0.0542 0.896869,-0.0295 1.213861,-0.15951 0.301671,-0.12375 0.741258,-0.13067 0.870514,-0.0137 0.168191,0.15221 0.09103,0.42767 -0.119786,0.42767 -0.08578,0 -0.208379,0.0464 -0.683354,0.25832 -0.11275,0.0503 -0.33184,0.10323 -0.486871,0.11758 -0.345968,0.032 -0.49602,0.078 -0.922488,0.28279 -0.257773,0.12376 -0.302496,0.16009 -0.197727,0.16062 0.08732,5.8e-4 0.224899,0.0812 0.387474,0.22732 0.251006,0.22568 0.253394,0.22653 0.55974,0.19875 0.225614,-0.0205 0.349885,-0.006 0.466005,0.054 0.167446,0.0866 0.400217,0.40925 0.351781,0.48762 -0.04444,0.0719 0.09682,0.16371 0.36571,0.23766 0.371051,0.10205 0.543206,0.0908 0.737218,-0.0481 z m 11.898119,0.009 c 0.19115,-0.10684 0.293988,-0.20435 0.293988,-0.27873 0,-0.14857 -0.297096,-0.35265 -0.729427,-0.50106 -0.529405,-0.18174 -0.681239,-0.15656 -0.819166,0.13587 -0.08018,0.17001 -0.08098,0.20058 -0.0091,0.34476 0.09309,0.1866 0.115824,0.18994 0.378932,0.0557 0.182762,-0.0933 0.206903,-0.0951 0.267017,-0.0208 0.277128,0.34284 0.390353,0.39126 0.617716,0.26419 z m -5.958432,-0.34594 c 0,-0.0282 -0.01017,-0.0512 -0.0226,-0.0512 -0.01244,0 -0.03685,0.0231 -0.05428,0.0512 -0.01741,0.0282 -0.0072,0.0513 0.0226,0.0513 0.02985,0 0.05427,-0.0231 0.05427,-0.0513 z m 2.433484,-0.1011 c 0.04228,-0.0684 0.39155,-0.15759 0.725224,-0.18516 0.225897,-0.0187 0.304306,-0.003 0.425582,0.087 0.193464,0.14303 0.39736,0.10065 0.445884,-0.0927 0.03708,-0.14773 -0.05649,-0.36289 -0.186473,-0.42881 -0.216367,-0.10973 -1.087217,-0.21876 -1.653186,-0.20698 -0.331416,0.007 -0.775138,-0.0153 -0.986048,-0.0493 -0.370448,-0.0597 -0.389568,-0.0577 -0.562996,0.0604 -0.133491,0.0909 -0.179616,0.15926 -0.179876,0.26656 -3.87e-4,0.1951 0.0856,0.34257 0.199935,0.34257 0.0518,0 0.203391,0.0483 0.336869,0.10735 0.178669,0.079 0.298681,0.0991 0.454947,0.0761 0.30563,-0.0451 0.767847,-0.0311 0.824688,0.0249 0.06251,0.0616 0.116625,0.0609 0.15545,-0.002 z m -5.171244,-1.41628 c 0.10187,0.0391 0.226544,-0.0173 0.226544,-0.10246 0,-0.0418 -0.0526,-0.0714 -0.126942,-0.0714 -0.148121,0 -0.316006,0.21436 -0.249096,0.31806 0.0306,0.0474 0.04762,0.0323 0.05974,-0.0529 0.01114,-0.0784 0.04188,-0.10966 0.08975,-0.0913 z m 0.226544,-0.32759 c 0,-0.0282 -0.03323,-0.0512 -0.07385,-0.0512 -0.04062,0 -0.0881,0.0231 -0.105523,0.0512 -0.01741,0.0282 0.01581,0.0512 0.07385,0.0512 0.05804,0 0.105523,-0.0231 0.105523,-0.0512 z m 3.983511,-0.38977 c -0.05929,-0.0593 -0.396059,-0.0822 -0.396059,-0.0269 0,0.0319 0.0346,0.058 0.07688,0.058 0.04228,0 0.07687,0.0335 0.07687,0.0743 0,0.0409 0.04036,0.0971 0.08969,0.12493 0.07242,0.0409 0.09812,0.0259 0.133462,-0.0775 0.02408,-0.0705 0.0327,-0.13921 0.01916,-0.15275 z m 0.449556,0.0816 c 0,-0.10986 -0.148913,-0.094 -0.170512,0.0182 -0.01319,0.0685 0.0077,0.0894 0.07617,0.0762 0.05189,-0.01 0.09434,-0.0524 0.09434,-0.0943 z m -2.331844,-0.60479 c 0.126841,-0.0371 0.310307,-0.0921 0.407698,-0.12243 0.09739,-0.0303 0.310537,-0.0586 0.473656,-0.0629 0.163121,-0.004 0.324435,-0.0357 0.35848,-0.0698 0.03404,-0.034 0.11358,-0.0619 0.176747,-0.0619 0.06317,0 0.127487,-0.0204 0.142934,-0.0454 0.04868,-0.0788 -0.100198,-0.15823 -0.360327,-0.19231 -0.138091,-0.0181 -0.308732,-0.0614 -0.379199,-0.0963 -0.102269,-0.0506 -0.179834,-0.05 -0.384369,0.003 -0.140937,0.0364 -0.444939,0.0678 -0.67556,0.0696 -0.230623,0.002 -0.511466,0.0351 -0.624096,0.0739 -0.176499,0.0608 -0.215084,0.0602 -0.279386,-0.004 -0.05792,-0.0579 -0.0984,-0.0619 -0.180994,-0.0177 -0.126849,0.0679 -0.480304,10e-4 -0.768395,-0.14442 -0.445498,-0.22559 -1.462962,-0.25822 -1.713962,-0.055 -0.111156,0.09 -0.1114,0.0931 -0.01573,0.19882 0.05345,0.0591 0.157032,0.10812 0.230178,0.10902 0.07314,7.7e-4 0.177759,0.0355 0.232473,0.0769 0.05472,0.0414 0.151681,0.0752 0.215479,0.0752 0.0638,0 0.266343,0.0546 0.450103,0.12127 0.183757,0.0667 0.3866,0.11237 0.450763,0.10149 0.06416,-0.0109 0.213265,0.009 0.331346,0.0453 0.290708,0.0881 1.608069,0.0865 1.912158,-0.002 z m -8.365387,-0.22411 c -0.03167,-0.095 -0.142004,-0.11079 -0.142004,-0.0203 0,0.0446 0.03652,0.0811 0.08115,0.0811 0.04463,0 0.07202,-0.0274 0.06086,-0.0609 z m 3.976477,-0.52851 c -0.01623,-0.0423 -0.03856,-0.0769 -0.04964,-0.0769 -0.01108,0 -0.02014,0.0346 -0.02014,0.0769 0,0.0423 0.02234,0.0769 0.04964,0.0769 0.0273,0 0.03637,-0.0346 0.02014,-0.0769 z m 44.599013,-0.37082 c -0.03037,-0.0304 -0.184374,0.0489 -0.184374,0.0949 0,0.0254 0.04507,0.018 0.100168,-0.0164 0.05509,-0.0344 0.09299,-0.0697 0.08421,-0.0785 z m 1.583727,-0.26979 c 0.08987,-0.0993 0.08951,-0.1025 -0.01141,-0.1025 -0.113194,0 -0.239082,0.11679 -0.184604,0.17127 0.0548,0.0548 0.09784,0.0397 0.196012,-0.0688 z m -45.554569,-0.82231 c 0.100946,-0.0384 0.18171,-0.0367 0.284905,0.006 0.117922,0.0489 0.167034,0.0446 0.270994,-0.0235 0.108306,-0.071 0.262974,-0.0804 1.052058,-0.0641 0.553075,0.0114 0.937225,-5.9e-4 0.955272,-0.0297 0.0166,-0.0269 0.183287,-0.0431 0.370413,-0.0361 0.187126,0.007 0.501663,-0.005 0.698973,-0.0261 0.459964,-0.0498 0.487463,-0.0548 0.640617,-0.11594 0.07047,-0.0281 0.250014,-0.0942 0.398989,-0.14673 0.291437,-0.10287 0.452702,-0.23755 0.395418,-0.33024 -0.07807,-0.12631 -0.278883,-0.14663 -0.770526,-0.078 -0.274097,0.0383 -0.528111,0.0582 -0.564476,0.0442 -0.03636,-0.014 -0.11987,0.009 -0.185568,0.052 -0.1711,0.1108 -0.622146,0.14541 -1.990053,0.1527 -0.887049,0.005 -1.271871,-0.0123 -1.460605,-0.0647 -0.140936,-0.0391 -0.394305,-0.0683 -0.563046,-0.0648 -0.182324,0.004 -0.442234,-0.036 -0.640616,-0.098 -0.183601,-0.0574 -0.480536,-0.11591 -0.659856,-0.12999 -0.287245,-0.0226 -0.340603,-0.0119 -0.448431,0.0894 -0.211827,0.199 -0.154798,0.41092 0.152985,0.56851 0.358874,0.18374 0.611567,0.2331 1.35267,0.26423 0.233029,0.01 0.438669,0.0328 0.456973,0.0511 0.04554,0.0455 0.08894,0.0421 0.25291,-0.0203 z m 45.503321,-0.15143 c 0.01741,-0.0282 0.0086,-0.0512 -0.01958,-0.0512 -0.02819,0 -0.0655,0.0231 -0.08292,0.0512 -0.01741,0.0282 -0.0086,0.0513 0.01958,0.0513 0.02819,0 0.0655,-0.0231 0.08292,-0.0513 z m -36.524794,-0.14035 c -0.02144,-0.11134 -0.195354,-0.15323 -0.195354,-0.0471 0,0.0704 0.06673,0.12218 0.170318,0.13212 0.02321,0.002 0.03447,-0.0361 0.02504,-0.0851 z m 7.507338,-0.15434 c -0.01623,-0.1057 -0.04566,-0.21524 -0.0654,-0.24343 -0.01974,-0.0282 -0.06676,-0.22058 -0.1045,-0.42754 -0.05609,-0.30758 -0.0894,-0.38419 -0.182453,-0.41957 -0.06261,-0.0238 -0.150757,-0.096 -0.195883,-0.16042 -0.141736,-0.20236 -0.101552,-0.34571 0.174201,-0.62147 0.245741,-0.24574 0.256321,-0.26802 0.258062,-0.5436 9.69e-4,-0.15805 0.03478,-0.34502 0.07506,-0.41549 0.04028,-0.0705 0.07406,-0.18833 0.07506,-0.26191 9.69e-4,-0.0736 0.05964,-0.21899 0.130319,-0.32314 0.118231,-0.17422 0.161149,-0.29699 0.279204,-0.79868 0.05227,-0.22212 0.15823,-0.52103 0.208927,-0.58937 0.0619,-0.0834 0.111814,-0.47405 0.06432,-0.5034 -0.06595,-0.0408 -0.734378,0.59251 -0.733218,0.69465 5.82e-4,0.0488 -0.07978,0.17194 -0.178514,0.27362 -0.151059,0.15555 -0.178378,0.21867 -0.1723,0.39811 0.007,0.20738 -0.115165,0.7742 -0.181116,0.84015 -0.01803,0.018 -0.09343,0.0112 -0.167524,-0.0152 -0.128797,-0.0459 -0.178855,-0.13631 -0.430818,-0.77829 -0.05145,-0.13108 -0.278534,-0.15886 -0.418938,-0.0513 -0.06748,0.0517 -0.07496,0.10355 -0.03883,0.26906 0.09281,0.42512 0.143353,0.58237 0.224361,0.69803 0.0459,0.0655 0.08346,0.17318 0.08346,0.23923 0,0.0661 0.02289,0.16286 0.05086,0.21513 0.02797,0.0523 0.06336,0.25255 0.07865,0.44506 0.03518,0.4432 0.124375,0.9931 0.177311,1.09314 0.02564,0.0485 0.100012,0.072 0.201187,0.0637 0.131583,-0.0108 0.169623,0.0108 0.211088,0.11987 0.02782,0.0732 0.04557,0.19881 0.03944,0.2792 -0.0064,0.0833 0.03136,0.19709 0.08763,0.2645 0.210445,0.25211 0.405567,0.45145 0.441895,0.45145 0.02089,0 0.02469,-0.0865 0.0085,-0.19219 z m 0.5997,-0.22408 c 0,-0.0529 -0.02059,-0.0962 -0.04576,-0.0962 -0.05226,0 -0.107983,0.1244 -0.107983,0.24108 0,0.0644 0.0142,0.0672 0.07688,0.0152 0.04228,-0.0351 0.07687,-0.1071 0.07687,-0.16002 z m 28.135884,-0.35247 c -0.08279,-0.1547 -0.282152,-0.12714 -0.221606,0.0306 0.01517,0.0395 0.08358,0.0719 0.15202,0.0719 0.108562,0 0.117443,-0.0131 0.06959,-0.1025 z m -37.514512,0 c 0,-0.0282 -0.02306,-0.0512 -0.05125,-0.0512 -0.02819,0 -0.05125,0.0231 -0.05125,0.0512 0,0.0282 0.02306,0.0513 0.05125,0.0513 0.02819,0 0.05125,-0.0231 0.05125,-0.0513 z m 0.274865,-0.16791 c 0.127089,-0.0929 0.05611,-0.24209 -0.115196,-0.24209 -0.07527,0 -0.189609,-0.0369 -0.254078,-0.0821 -0.06447,-0.0451 -0.130026,-0.0693 -0.145682,-0.0536 -0.05431,0.0543 0.03744,0.28948 0.112945,0.28948 0.04174,0 0.0759,0.0214 0.0759,0.0475 0,0.0401 0.06185,0.07 0.208014,0.10031 0.01575,0.003 0.0689,-0.0235 0.1181,-0.0595 z m -0.847856,-0.19963 c -0.02414,-0.16408 -0.144499,-0.18165 -0.144499,-0.0211 0,0.0861 0.02811,0.13239 0.08044,0.13239 0.05342,0 0.07494,-0.0374 0.06406,-0.11129 z m -6.012547,-0.0937 c 0.01803,-0.0292 -0.0261,-0.0512 -0.1025,-0.0512 -0.0764,0 -0.120534,0.0221 -0.102499,0.0512 0.01741,0.0282 0.06355,0.0512 0.102499,0.0512 0.03895,0 0.08508,-0.0231 0.1025,-0.0512 z m -5.74464,-0.23063 c -0.05676,-0.0866 -0.130847,-0.12812 -0.228779,-0.12812 -0.278598,0 -0.232699,0.18358 0.05457,0.21825 0.09841,0.0119 0.196753,0.0253 0.218544,0.0298 0.02179,0.005 0.0019,-0.0495 -0.04433,-0.11993 z m 11.602864,-0.17605 c -0.06698,-0.10725 -0.143924,-0.0937 -0.143924,0.0253 0,0.0406 0.04632,0.0738 0.102931,0.0738 0.08896,0 0.09453,-0.0135 0.04099,-0.0992 z m 3.39228,-0.032 c 0,-0.0439 -0.02306,-0.0656 -0.05125,-0.0482 -0.02819,0.0174 -0.05125,0.0534 -0.05125,0.0799 0,0.0265 0.02306,0.0482 0.05125,0.0482 0.02819,0 0.05125,-0.036 0.05125,-0.0799 z m -10.437369,-0.38217 c 0.217635,-0.0334 0.450889,-0.0369 0.614992,-0.009 0.290811,0.0492 1.676526,0.0376 2.155918,-0.0181 0.166848,-0.0194 0.372697,-0.0644 0.457438,-0.1 0.09738,-0.041 0.206937,-0.0496 0.297714,-0.0236 0.079,0.0227 0.364509,0.025 0.634466,0.005 0.26996,-0.0197 0.517134,-0.0196 0.54928,2e-4 0.03215,0.0199 0.117962,0.005 0.190704,-0.0323 0.08938,-0.0462 0.199699,-0.0561 0.340279,-0.0303 0.35976,0.0658 0.583251,-0.0859 0.475377,-0.32268 -0.100162,-0.21983 -0.364686,-0.25482 -1.326222,-0.17543 -0.352339,0.0291 -0.675208,0.0505 -0.717489,0.0475 -0.501301,-0.0354 -0.64813,-0.0385 -0.690282,-0.0148 -0.06035,0.0339 -1.015243,0.0642 -1.769686,0.0561 -0.11275,-0.001 -0.245358,-3.9e-4 -0.294685,0.002 -0.102486,0.005 -1.124825,-0.0348 -1.883413,-0.0731 -1.384693,-0.0698 -1.515472,-0.0661 -1.593225,0.0449 -0.147369,0.2104 -0.09374,0.30276 0.248684,0.42831 0.175754,0.0644 0.388742,0.15066 0.473303,0.1916 0.09585,0.0464 0.35639,0.0804 0.691865,0.0902 0.578639,0.017 0.614657,0.0148 1.144982,-0.0667 z m -4.156562,-0.14011 c 0.07934,-0.0898 0.109624,-0.24716 0.173118,-0.89979 0.04361,-0.44825 -0.01703,-0.57054 -0.320882,-0.64705 -0.153274,-0.0386 -0.307115,-0.13534 -0.479661,-0.30165 -0.296149,-0.28545 -0.537123,-0.47054 -0.612614,-0.47054 -0.06824,0 -0.06743,0.0109 0.01798,0.2424 0.03921,0.10627 0.09853,0.32588 0.131825,0.48802 0.06185,0.30121 0.367992,0.95184 0.56678,1.20453 0.06086,0.0774 0.14197,0.2156 0.180252,0.30721 0.07836,0.18751 0.217822,0.21874 0.34321,0.0769 z m 18.05326,-0.0641 c -0.01741,-0.0282 -0.05338,-0.0512 -0.0799,-0.0512 -0.02652,0 -0.04823,0.0231 -0.04823,0.0512 0,0.0282 0.03595,0.0512 0.0799,0.0512 0.04394,0 0.06565,-0.0231 0.04823,-0.0512 z m -16.745727,-0.2349 c -0.04884,-0.0488 -0.146751,0.0303 -0.110355,0.0892 0.02163,0.035 0.0503,0.0341 0.08711,-0.003 0.03017,-0.0302 0.04064,-0.0691 0.02325,-0.0865 z m 10.928928,-0.0183 c 0,-0.0265 -0.02417,-0.0632 -0.0537,-0.0814 -0.07522,-0.0465 -0.215821,0.0154 -0.177143,0.078 0.04031,0.0652 0.230846,0.068 0.230846,0.003 z m -0.189598,-0.58423 c 0.03286,-0.0856 -0.01443,-0.15959 -0.129069,-0.20185 -0.128744,-0.0475 -0.166796,0.0564 -0.06278,0.17129 0.105709,0.1168 0.155699,0.12477 0.191849,0.0306 z m 1.57333,-0.48271 c 0,-0.0496 -0.04612,-0.11897 -0.102498,-0.15418 -0.08831,-0.0552 -0.102499,-0.0512 -0.102499,0.0287 0,0.0954 0.09144,0.21568 0.163998,0.21568 0.02255,0 0.041,-0.0406 0.041,-0.0902 z m -7.305478,-0.31681 c 0.304655,-0.0797 0.446982,-0.0945 0.563743,-0.0584 0.211807,0.0653 1.155558,0.0975 1.155558,0.0394 0,-0.0255 0.0533,-0.033 0.118433,-0.0166 0.152899,0.0384 0.496898,-0.0563 0.49542,-0.13633 -5.81e-4,-0.0339 -0.04394,-0.11733 -0.09625,-0.18538 -0.0905,-0.11772 -0.10616,-0.12062 -0.323015,-0.0599 -0.245964,0.0689 -0.854806,0.0445 -0.906632,-0.0363 -0.01708,-0.0267 -0.34241,-0.0534 -0.722936,-0.0594 -0.380526,-0.006 -0.795647,-0.0132 -0.922488,-0.016 -0.126843,-0.003 -0.392059,0.002 -0.589368,0.0118 -0.547976,0.0258 -2.862422,-0.0743 -2.948449,-0.12744 -0.02139,-0.0132 -0.05086,0.007 -0.06549,0.0453 -0.01462,0.0381 -0.09714,0.0834 -0.183378,0.10065 -0.183612,0.0367 -0.272508,0.25111 -0.153351,0.36983 0.07275,0.0725 0.202672,0.0858 1.736309,0.17818 0.465089,0.028 0.880208,0.0612 0.922488,0.0738 0.210798,0.0628 1.532987,-0.022 1.919403,-0.12311 z m 4.086166,-0.27036 c -0.03678,-0.0368 -0.06065,-0.0398 -0.06065,-0.008 0,0.0684 0.06061,0.12901 0.09481,0.0948 0.01457,-0.0146 -7.75e-4,-0.0538 -0.03417,-0.0871 z m -9.708309,-0.23233 c 0.01464,-0.044 -0.04023,-0.0636 -0.175126,-0.0624 -0.185606,0.002 -0.190849,0.006 -0.09495,0.0784 0.114797,0.0868 0.238305,0.0795 0.270073,-0.0159 z m 0.682874,-0.0782 c -0.0063,-0.0613 -0.07663,-0.0494 -0.09865,0.0167 -0.01127,0.0338 0.0072,0.0523 0.041,0.041 0.03383,-0.0113 0.05977,-0.0372 0.05766,-0.0577 z m 9.118538,0.0141 c 0,-0.0282 -0.03595,-0.0512 -0.0799,-0.0512 -0.04394,0 -0.06565,0.0231 -0.04823,0.0512 0.01741,0.0282 0.05338,0.0512 0.0799,0.0512 0.02652,0 0.04822,-0.0231 0.04822,-0.0512 z m 0.307496,-0.12812 c 0,-0.0423 -0.03213,-0.0769 -0.07139,-0.0769 -0.03926,0 -0.08467,0.0346 -0.100889,0.0769 -0.02007,0.0523 0.0028,0.0769 0.07139,0.0769 0.05551,0 0.10089,-0.0346 0.100889,-0.0769 z m -12.373717,-0.58345 c -0.07212,-0.14232 -0.13112,-0.30278 -0.13112,-0.35658 0,-0.0538 -0.05803,-0.22904 -0.128955,-0.38941 -0.204626,-0.4627 -0.38354,-1.00737 -0.38354,-1.16763 0,-0.0811 -0.03088,-0.20964 -0.06863,-0.28575 -0.04227,-0.0852 -0.06495,-0.28604 -0.05905,-0.52276 0.0053,-0.21141 -0.007,-0.49719 -0.02736,-0.63509 -0.04338,-0.2944 0.0276,-1.01798 0.115416,-1.17644 0.03362,-0.0607 0.05465,-0.14192 0.04672,-0.18055 -0.0079,-0.0386 0.01362,-0.13792 0.04789,-0.22066 0.09099,-0.21966 9.69e-4,-0.2929 -0.226609,-0.18437 -0.144379,0.0688 -0.178406,0.11831 -0.207786,0.30205 -0.11626,0.72705 -0.611916,0.73092 -0.94129,0.007 -0.08679,-0.19065 -0.196788,-0.50808 -0.244444,-0.70539 -0.08315,-0.34427 -0.231605,-0.58936 -0.356978,-0.58936 -0.144764,0 -0.286615,0.51713 -0.226795,0.82681 0.02378,0.12309 0.04424,0.40562 0.04546,0.62785 0.0022,0.38741 0.07445,0.77159 0.16462,0.87462 0.02344,0.0268 0.04261,0.0787 0.04261,0.11531 0,0.0366 0.04036,0.10951 0.08969,0.16192 0.04933,0.0524 0.155104,0.18052 0.235058,0.28469 0.07995,0.10417 0.246036,0.2383 0.369069,0.29808 0.132316,0.0643 0.245158,0.16258 0.276231,0.24061 0.07868,0.19759 0.03884,0.6223 -0.07987,0.85156 -0.05778,0.11157 -0.119924,0.26052 -0.138107,0.33099 -0.01819,0.0705 -0.128445,0.23016 -0.245028,0.35489 -0.174108,0.18626 -0.199021,0.23661 -0.139477,0.28187 0.252076,0.19161 0.80741,0.65696 0.820774,0.68777 0.03508,0.0809 0.414663,0.2642 0.547114,0.2642 0.07747,0 0.219011,0.0576 0.314523,0.12812 0.09551,0.0705 0.235545,0.12812 0.311179,0.12812 0.07563,0 0.169168,0.0385 0.207853,0.0855 0.133691,0.16244 0.112293,-0.15913 -0.02916,-0.43829 z m 18.062393,0.48398 c 0,-0.0124 -0.02306,-0.0369 -0.05125,-0.0543 -0.02819,-0.0174 -0.05125,-0.007 -0.05125,0.0226 0,0.0299 0.02306,0.0543 0.05125,0.0543 0.02819,0 0.05125,-0.0102 0.05125,-0.0226 z m 2.833432,-1.07019 c 0.110257,-0.21595 0.310184,-0.50237 0.444285,-0.63648 0.454684,-0.45471 1.084658,-1.01249 1.163377,-1.03006 0.04999,-0.0111 0.0688,-0.054 0.05196,-0.11844 -0.01567,-0.0599 0.0033,-0.11234 0.04649,-0.12894 0.04009,-0.0154 0.0729,-0.0819 0.0729,-0.14786 0,-0.0659 0.08182,-0.2595 0.181821,-0.43013 0.185022,-0.31569 0.329116,-0.71052 0.330118,-0.90456 3.87e-4,-0.0591 0.03302,-0.1744 0.07271,-0.25625 0.09793,-0.20196 0.202783,-1.19561 0.161246,-1.52805 -0.01852,-0.14817 -0.0349,-0.4582 -0.03641,-0.68895 -0.0024,-0.36163 -0.01652,-0.42692 -0.102513,-0.47294 -0.05487,-0.0294 -0.149694,-0.0462 -0.210721,-0.0374 -0.138492,0.02 -0.165687,0.12949 -0.239471,0.96414 -0.05232,0.59181 -0.135306,0.96441 -0.357673,1.60586 -0.09185,0.26494 -0.533437,0.8132 -0.811278,1.00724 -0.09161,0.064 -0.166561,0.14393 -0.166561,0.17766 0,0.0337 -0.05766,0.1155 -0.128124,0.1817 -0.186433,0.17515 -0.16211,0.34278 0.102499,0.70643 0.126844,0.17432 0.230623,0.36186 0.230623,0.41676 0,0.11433 -0.250215,0.31179 -0.395078,0.31179 -0.05356,0 -0.185509,-0.0807 -0.293215,-0.17937 -0.107706,-0.0987 -0.215993,-0.17937 -0.240637,-0.17937 -0.02464,0 -0.04481,-0.0243 -0.04481,-0.0541 0,-0.0297 -0.127051,-0.11225 -0.282337,-0.18334 -0.359099,-0.1644 -0.544222,-0.13548 -0.630281,0.0985 -0.08838,0.24026 -0.380253,0.40997 -0.752767,0.43772 -0.169004,0.0126 -0.353501,0.052 -0.409996,0.0876 -0.169821,0.107 -0.796626,0.19129 -1.231644,0.16563 -0.395076,-0.0233 -0.654109,10e-4 -1.259182,0.11996 -0.242396,0.0475 -0.312299,0.0431 -0.450761,-0.0285 -0.135335,-0.07 -0.397786,-0.0898 -1.506841,-0.11355 -2.110778,-0.0453 -2.582834,-0.0458 -3.222145,-0.003 -0.353829,0.0235 -0.687265,0.0196 -0.816719,-0.01 -0.147567,-0.0331 -0.251823,-0.0315 -0.320321,0.005 -0.09242,0.0495 -1.160923,0.12102 -1.468095,0.0983 -0.07047,-0.005 -0.220373,-0.006 -0.333121,-0.002 -0.112747,0.004 -0.285714,0.005 -0.384371,0.001 -0.689945,-0.0236 -2.023507,-0.015 -2.850618,0.0182 -0.701854,0.0282 -0.990006,0.0233 -1.0152,-0.0175 -0.01935,-0.0313 -0.10045,-0.0569 -0.180225,-0.0569 -0.217658,0 -0.355384,-0.14483 -0.407184,-0.42818 -0.02502,-0.13684 -0.08082,-0.28413 -0.124,-0.32731 -0.120328,-0.12033 -0.240209,-0.0433 -0.240209,0.15426 0,0.0939 -0.0205,0.19264 -0.04556,0.21942 -0.02506,0.0268 -0.06774,0.18164 -0.09485,0.34414 -0.04561,0.27335 -0.04046,0.30498 0.06874,0.42281 0.10979,0.11846 0.347994,0.16801 0.626406,0.1303 0.03733,-0.005 0.09927,0.0169 0.13766,0.0487 0.05105,0.0424 0.09806,0.0428 0.175014,0.002 0.07388,-0.0395 0.223694,-0.0416 0.502957,-0.007 0.261403,0.0325 0.480065,0.0318 0.637914,-0.002 0.152694,-0.0327 0.274029,-0.0338 0.33312,-0.003 0.06174,0.0323 0.178983,0.0254 0.349194,-0.0205 0.140935,-0.038 0.463804,-0.0673 0.717489,-0.0652 0.253685,0.002 0.703398,5e-5 0.999363,-0.005 0.295965,-0.005 0.595773,-0.005 0.666241,-5.8e-4 0.414839,0.0265 0.959736,10e-4 1.15614,-0.0539 0.168709,-0.0472 0.244728,-0.0487 0.296424,-0.006 0.04807,0.0399 0.145768,0.0435 0.316622,0.0115 0.1359,-0.0254 0.271971,-0.0379 0.302376,-0.0278 0.06918,0.023 0.54122,0.0833 0.644653,0.0823 1.035519,-0.01 2.827338,-0.0587 2.85908,-0.0783 0.02338,-0.0145 0.494391,-0.0274 1.046685,-0.0287 0.552294,-10e-4 1.065579,-0.0258 1.140631,-0.0543 0.182103,-0.0692 0.574379,-0.062 0.796028,0.0147 0.112103,0.0388 0.285079,0.0493 0.461244,0.028 0.155029,-0.0187 0.615159,-0.0483 1.02251,-0.0657 0.545038,-0.0233 0.76266,-0.0516 0.824024,-0.10712 0.101966,-0.0923 0.274958,-0.098 0.345815,-0.0114 0.02884,0.0352 0.118142,0.18318 0.198461,0.32878 0.17417,0.31573 0.470747,0.56531 0.727986,0.61263 0.102732,0.0189 0.242301,0.0776 0.310154,0.13034 0.175885,0.13683 0.28608,0.0468 0.531967,-0.43487 z m -19.394884,-0.36516 c 0.01133,-0.0584 -0.0071,-0.0831 -0.05125,-0.0684 -0.03793,0.0126 -0.07692,0.0641 -0.08666,0.11431 -0.01133,0.0584 0.0071,0.0831 0.05125,0.0684 0.03793,-0.0126 0.07693,-0.0641 0.08666,-0.11431 z m 0.31457,-0.86109 c -3.88e-4,-0.0634 -0.05235,-0.19792 -0.115311,-0.29889 -0.06296,-0.10097 -0.160593,-0.26025 -0.216967,-0.35396 -0.230615,-0.38333 -0.412064,-0.46929 -0.406859,-0.19275 0.0045,0.23755 0.06619,0.35495 0.35574,0.67661 0.274228,0.30465 0.384745,0.35336 0.383397,0.16899 z m 22.177925,-0.1719 c -0.01703,-0.017 -0.06123,-0.0188 -0.09823,-0.004 -0.04088,0.0164 -0.02874,0.0285 0.03096,0.031 0.05403,0.002 0.0843,-0.01 0.06727,-0.0269 z m -0.652362,-0.22109 c 0,-0.13074 -0.05205,-0.26044 -0.104528,-0.26044 -0.07596,0 -0.110483,0.20806 -0.04718,0.28434 0.08574,0.10331 0.151707,0.0929 0.151708,-0.0239 z m -13.837437,-0.0908 c 1.53e-4,-0.0894 -0.08884,-0.12954 -0.205339,-0.0926 -0.160768,0.051 -0.123708,0.16529 0.05159,0.15906 0.0845,-0.003 0.153684,-0.0329 0.153748,-0.0665 z m 2.972579,0.007 c 0,-0.0439 -0.02306,-0.0657 -0.05125,-0.0482 -0.02819,0.0174 -0.05125,0.0534 -0.05125,0.0799 0,0.0265 0.02306,0.0482 0.05125,0.0482 0.02819,0 0.05125,-0.036 0.05125,-0.0799 z m 11.351728,-0.58634 c -0.0248,-0.0401 -0.05428,-0.0431 -0.08845,-0.009 -0.02819,0.0282 -0.03451,0.0783 -0.01406,0.11143 0.0248,0.0401 0.05428,0.0431 0.08844,0.009 0.02819,-0.0282 0.03451,-0.0783 0.01406,-0.11143 z m -18.629135,0 c 0,-0.0282 -0.02442,-0.0512 -0.05427,-0.0512 -0.02985,0 -0.04002,0.0231 -0.0226,0.0512 0.01741,0.0282 0.04185,0.0513 0.05428,0.0513 0.01243,0 0.0226,-0.0231 0.0226,-0.0513 z m 8.968635,-0.36177 c 0,-0.0265 -0.03459,-0.0482 -0.07688,-0.0482 -0.07925,0 -0.101817,0.0605 -0.0441,0.11819 0.04095,0.0409 0.120976,-0.005 0.120976,-0.07 z m 3.177458,0.003 c 0,-0.058 -0.03417,-0.1025 -0.07868,-0.1025 -0.0628,0 -0.0676,0.0207 -0.02382,0.1025 0.03017,0.0564 0.06558,0.1025 0.07868,0.1025 0.01309,0 0.02382,-0.0461 0.02382,-0.1025 z m -11.941094,-0.91439 c 0,-0.31098 -0.256592,-0.48008 -0.816454,-0.53807 -0.18127,-0.0188 -0.383819,-0.0697 -0.450106,-0.11311 -0.108975,-0.0714 -0.119421,-0.11189 -0.109019,-0.42262 0.0093,-0.27881 0.03663,-0.3775 0.144669,-0.52303 0.07324,-0.0987 0.187399,-0.34081 0.253687,-0.53812 0.06629,-0.19731 0.1393,-0.38295 0.162253,-0.41253 0.02295,-0.0296 0.05731,-0.15118 0.07634,-0.2702 0.01904,-0.11902 0.05464,-0.22878 0.07912,-0.24391 0.04782,-0.0296 0.06268,-0.22647 0.01709,-0.22647 -0.121445,0 -0.27178,0.18384 -0.301298,0.36844 -0.02403,0.15024 -0.0913,0.26865 -0.233366,0.41071 -0.109784,0.10978 -0.214497,0.2674 -0.232695,0.35026 -0.01821,0.0829 -0.05438,0.16381 -0.0804,0.17989 -0.02602,0.0161 -0.0473,0.0964 -0.0473,0.17843 0,0.082 -0.06919,0.28534 -0.153748,0.45174 -0.08456,0.16641 -0.153748,0.37005 -0.153748,0.45253 0,0.0825 -0.0202,0.17188 -0.04488,0.19866 -0.02468,0.0268 -0.05945,0.16511 -0.07727,0.30741 -0.03813,0.3046 0.02527,0.42236 0.24923,0.46297 0.08387,0.0152 0.15688,0.032 0.162255,0.0374 0.0054,0.005 0.357592,0.014 0.782706,0.0192 l 0.772937,0.01 z m 3.126447,0.0175 c 0.05602,-0.0178 0.178069,-0.005 0.271214,0.0289 0.139297,0.0504 0.196465,0.0472 0.322092,-0.0177 0.08957,-0.0463 0.183873,-0.0621 0.228029,-0.0382 0.04141,0.0224 0.525004,0.0164 1.074651,-0.0134 0.54965,-0.0298 1.126205,-0.0493 1.281235,-0.0434 0.456636,0.0175 0.516167,0.0183 0.999361,0.0136 0.253685,-0.002 0.906955,0.002 1.451714,0.009 0.596341,0.008 1.157154,-0.0116 1.409357,-0.0496 0.230388,-0.0347 0.595949,-0.0643 0.812361,-0.0659 0.377723,-0.003 1.172074,-0.0911 1.216758,-0.13549 0.01183,-0.0117 -0.03121,-0.13389 -0.09564,-0.27145 -0.100998,-0.21563 -0.109125,-0.27439 -0.05897,-0.42635 0.03199,-0.0969 0.135145,-0.25086 0.229228,-0.34205 0.156028,-0.15123 0.195297,-0.16442 0.446818,-0.15005 l 0.275755,0.0157 0.03474,0.205 c 0.03796,0.22402 0.05583,0.74496 0.03251,0.94811 -0.01391,0.12127 3.87e-4,0.129 0.267168,0.14441 0.235355,0.0136 0.334731,-0.0107 0.60218,-0.14755 0.194245,-0.0994 0.320211,-0.19653 0.320058,-0.24691 -3.88e-4,-0.0949 -0.312099,-0.95468 -0.457626,-1.2618 -0.05343,-0.11275 -0.122772,-0.26265 -0.154102,-0.33312 -0.03133,-0.0705 -0.159604,-0.28956 -0.285047,-0.48687 -0.125443,-0.19731 -0.293515,-0.48559 -0.373493,-0.64062 -0.236591,-0.45861 -0.337302,-0.60789 -0.451259,-0.66888 -0.05924,-0.0317 -0.298903,-0.26496 -0.532587,-0.51835 -0.233681,-0.25339 -0.473555,-0.47978 -0.533049,-0.50308 -0.0595,-0.0233 -0.311179,-0.19447 -0.559295,-0.38038 -0.248117,-0.18592 -0.469863,-0.33803 -0.49277,-0.33803 -0.02291,0 -0.09827,-0.0445 -0.167475,-0.099 -0.0692,-0.0544 -0.338691,-0.16913 -0.598861,-0.25486 -0.260168,-0.0857 -0.622965,-0.22744 -0.806213,-0.3149 -1.02742,-0.49034 -2.847932,-0.6276 -4.325346,-0.3261 -0.930426,0.18987 -1.922027,0.54826 -2.09557,0.75739 -0.03917,0.0472 -0.171779,0.11115 -0.294682,0.14209 -0.122906,0.0309 -0.223464,0.0768 -0.223464,0.10177 0,0.025 -0.15567,0.14931 -0.345934,0.27617 -0.68156,0.45447 -1.010119,0.69476 -1.051791,0.76922 -0.02329,0.0416 -0.0758,0.0757 -0.116678,0.0757 -0.04088,0 -0.07433,0.032 -0.07433,0.0712 0,0.0392 -0.08072,0.13555 -0.179372,0.21421 -0.09866,0.0787 -0.179375,0.16286 -0.179375,0.18712 0,0.0604 -0.215774,0.36358 -0.294682,0.41407 -0.03523,0.0225 -0.06406,0.0747 -0.06406,0.11591 0,0.0587 0.04436,0.0678 0.204996,0.0422 0.165587,-0.0265 0.204999,-0.0174 0.204999,0.0472 0,0.044 0.04397,0.0939 0.09771,0.11099 0.05374,0.0171 0.136067,0.12688 0.182954,0.24406 0.04689,0.11718 0.193179,0.34116 0.325099,0.49775 0.317139,0.37643 0.436817,0.55511 0.516789,0.77156 0.03645,0.0987 0.11128,0.26528 0.166288,0.37028 0.118222,0.22566 0.094,0.44117 -0.09375,0.83408 -0.149787,0.31347 -0.219512,0.40604 -0.339909,0.45125 -0.05111,0.0192 -0.07783,0.0593 -0.05936,0.0892 0.01846,0.0299 0.06028,0.0447 0.09293,0.033 0.03265,-0.0117 0.119887,0.009 0.193861,0.0465 0.146316,0.0738 0.699853,0.0633 0.91093,-0.0173 0.133568,-0.051 0.562161,-3.8e-4 0.708513,0.0835 0.08902,0.0511 0.21973,0.0449 0.424395,-0.0201 z m 7.123419,-0.46984 c -0.149109,-0.0582 -0.313968,-0.24743 -0.4154,-0.47682 -0.05642,-0.1276 -0.156375,-0.28966 -0.222114,-0.36013 -0.220039,-0.23586 -0.274563,-0.40915 -0.259476,-0.82461 0.01145,-0.31525 0.03937,-0.42899 0.147315,-0.59998 0.07325,-0.11604 0.179648,-0.23584 0.236434,-0.26623 0.05678,-0.0304 0.103247,-0.0985 0.103247,-0.1514 0,-0.11455 0.23971,-0.32633 0.532149,-0.47014 0.116031,-0.0571 0.282319,-0.18539 0.369532,-0.28517 0.137946,-0.15783 0.194227,-0.18392 0.432813,-0.20064 0.318762,-0.0223 0.42326,0.0302 0.769786,0.38704 0.381105,0.39243 0.458186,0.55275 0.458186,0.95294 0,0.32255 -0.0291,0.47069 -0.169049,0.86068 -0.02874,0.0801 -0.136559,0.20139 -0.239602,0.26959 -0.103044,0.0682 -0.259085,0.22575 -0.346757,0.35013 -0.145632,0.20661 -0.63583,0.59279 -0.75246,0.59279 -0.02675,0 -0.09735,0.0458 -0.156895,0.1017 -0.115807,0.1088 -0.361709,0.16943 -0.487709,0.12025 z m -5.022841,-1.11931 c -0.120435,-0.14511 -0.02816,-0.46727 0.216929,-0.75731 0.335154,-0.39663 0.829073,-1.14428 1.006007,-1.52279 0.207375,-0.44365 0.258281,-0.71316 0.227473,-1.20436 -0.04236,-0.67545 -0.02824,-1.16078 0.03734,-1.28331 0.05116,-0.0956 0.08612,-0.10857 0.202589,-0.0752 0.210376,0.0603 0.360041,0.15038 0.360041,0.21662 0,0.0324 0.05143,0.16418 0.114284,0.29288 0.08657,0.17723 0.121652,0.3645 0.144661,0.7721 l 0.03038,0.53812 -0.217723,0.43562 c -0.119748,0.23959 -0.275948,0.56851 -0.347113,0.73094 -0.07116,0.16242 -0.165128,0.30902 -0.20881,0.32579 -0.04368,0.0168 -0.07942,0.0755 -0.07942,0.13056 0,0.055 -0.11139,0.21978 -0.247534,0.36607 -0.136145,0.1463 -0.280284,0.31305 -0.320309,0.37055 -0.100336,0.14417 -0.751406,0.74106 -0.808321,0.74106 -0.02545,0 -0.07516,-0.0348 -0.110472,-0.0774 z m -2.425394,-0.46929 c -0.01879,-0.0188 -0.03328,-0.0937 -0.03219,-0.16656 0.0022,-0.15023 0.166174,-0.28169 0.613018,-0.4916 0.36627,-0.17206 0.792892,-0.59112 0.970762,-0.95356 0.07767,-0.15827 0.179306,-0.34213 0.225848,-0.40858 0.04654,-0.0665 0.08462,-0.17334 0.08462,-0.23754 0,-0.16401 -0.234081,-0.16517 -0.285653,-0.001 -0.06222,0.19756 -0.260549,0.45268 -0.454234,0.58429 -0.102176,0.0694 -0.306134,0.23767 -0.453246,0.37388 -0.253102,0.23433 -0.545197,0.4661 -0.876074,0.69512 -0.488807,0.33834 -0.531123,0.3466 -0.721807,0.14096 -0.234131,-0.2525 -0.138434,-0.49327 0.280411,-0.70552 0.302078,-0.15307 1.447945,-1.2897 1.600341,-1.58743 0.155423,-0.30365 0.34641,-0.89392 0.347303,-1.07338 9.68e-4,-0.18699 0.02468,-0.22405 0.240575,-0.3754 0.215273,-0.15091 0.456987,-0.15387 0.503867,-0.006 0.01906,0.06 0.03861,0.38606 0.04345,0.72451 l 0.0088,0.61536 0.280312,0.0842 c 0.261774,0.0786 0.281421,0.0957 0.297089,0.25885 0.03326,0.34628 -0.274656,1.11133 -0.564336,1.40216 -0.07937,0.0797 -0.144307,0.17624 -0.144307,0.21458 0,0.10559 -0.365472,0.42822 -0.524719,0.46321 -0.07719,0.017 -0.153707,0.0524 -0.170038,0.0789 -0.06239,0.10095 -0.437115,0.25157 -0.62589,0.25157 -0.108484,0 -0.24201,0.0339 -0.296724,0.0752 -0.104361,0.0789 -0.289011,0.10252 -0.347187,0.0443 z M -66.476206,258.535 c 0.04497,-0.16782 0.04012,-0.19219 -0.0383,-0.19219 -0.10124,0 -0.202318,0.13889 -0.167365,0.22997 0.04466,0.11639 0.170543,0.0933 0.205661,-0.0378 z m 25.801309,-1.20041 c -0.02284,-0.19296 -0.127529,-0.20579 -0.154945,-0.019 -0.01863,0.12693 -0.0048,0.15597 0.07414,0.15597 0.07505,0 0.09335,-0.031 0.08081,-0.13698 z m 29.734023,-1.75924 c 0,-0.0282 -0.01017,-0.0513 -0.0226,-0.0513 -0.01243,0 -0.03685,0.0231 -0.05427,0.0513 -0.01741,0.0282 -0.0072,0.0512 0.0226,0.0512 0.02985,0 0.05427,-0.0231 0.05427,-0.0512 z m -48.256407,-0.28699 c 0.03224,-0.0124 0.088,-0.0695 0.123915,-0.12706 0.05977,-0.0957 0.05671,-0.1 -0.03617,-0.0503 -0.05581,0.0299 -0.154879,0.0545 -0.220153,0.0546 -0.06527,1.9e-4 -0.187868,0.0482 -0.272429,0.10667 l -0.153748,0.10633 0.249987,-0.0339 c 0.137493,-0.0187 0.276363,-0.044 0.308598,-0.0564 z m 46.601493,-2.41641 c 0.05873,-0.78431 0.05099,-1.4346 -0.01904,-1.60156 -0.04877,-0.11627 -0.06411,-0.25486 -0.0436,-0.39396 0.02698,-0.18299 0.01598,-0.22295 -0.07466,-0.27147 -0.254058,-0.13597 -1.12497,0.10398 -1.054989,0.29067 0.01255,0.0335 0.04778,0.15357 0.07829,0.26689 0.03051,0.11333 0.07791,0.21991 0.105337,0.23685 0.02742,0.017 0.04986,0.0843 0.04986,0.14964 0,0.0654 0.03346,0.1466 0.07436,0.18054 0.0409,0.0339 0.08976,0.16443 0.108591,0.28997 0.01883,0.12555 0.08885,0.30876 0.155615,0.40714 0.06677,0.0984 0.135471,0.23498 0.152686,0.30356 0.01722,0.0686 0.06363,0.15153 0.103139,0.18432 0.03952,0.0328 0.07185,0.0868 0.07185,0.11998 0,0.0332 0.02784,0.0882 0.06186,0.12221 0.09391,0.0939 0.213388,-0.0536 0.230698,-0.28478 z m 0.860547,-1.19156 c 0.01741,-0.0282 0.0072,-0.0513 -0.0226,-0.0513 -0.02985,0 -0.05427,0.0231 -0.05427,0.0513 0,0.0282 0.01017,0.0512 0.0226,0.0512 0.01244,0 0.03685,-0.0231 0.05427,-0.0512 z m -38.966341,-1.21231 c 0.08018,-0.0726 0.09372,-0.16784 0.09372,-0.65933 0,-0.50361 -0.01311,-0.59117 -0.106218,-0.70954 -0.09755,-0.12402 -0.136987,-0.13504 -0.48315,-0.13504 -0.347922,0 -0.385258,0.0106 -0.485146,0.13757 -0.07455,0.0948 -0.09904,0.17935 -0.07873,0.27183 0.01621,0.0738 0.03155,0.31133 0.03407,0.52775 0.0031,0.26651 0.02731,0.41235 0.07501,0.45193 0.03873,0.0322 0.07042,0.0902 0.07042,0.12905 0,0.11053 0.755664,0.0983 0.880016,-0.0142 z m 37.925084,-1.43293 c 0.134759,-0.23107 0.199396,-1.05951 0.195869,-2.51044 -0.0017,-0.73005 -0.004,-1.37349 -0.0051,-1.42986 -9.68e-4,-0.0564 -0.0061,-0.59834 -0.01131,-1.20436 -0.0052,-0.60603 -0.02865,-1.13155 -0.05211,-1.16784 -0.02345,-0.0363 -0.04089,-0.28526 -0.03874,-0.55325 0.0022,-0.268 -0.02236,-0.59577 -0.05446,-0.72839 -0.03858,-0.15934 -0.05554,-0.81343 -0.05,-1.92871 0.0053,-1.06716 -0.01147,-1.74771 -0.0456,-1.85112 -0.06183,-0.18734 -0.07996,-0.89213 -0.05105,-1.98395 0.01429,-0.5399 0.0026,-0.77392 -0.04092,-0.81742 -0.03352,-0.0335 -0.06095,-0.14723 -0.06095,-0.25268 0,-0.10544 -0.02428,-0.20673 -0.05396,-0.22507 -0.02967,-0.0183 -0.04428,-0.0601 -0.03246,-0.0927 0.01182,-0.0327 -0.02154,-0.17467 -0.07414,-0.31561 -0.0526,-0.14093 -0.09565,-0.30361 -0.09566,-0.3615 -4.1e-5,-0.16126 -0.299419,-0.41572 -0.667599,-0.56742 -0.400062,-0.16484 -0.441103,-0.16949 -1.638646,-0.18572 -0.643067,-0.009 -0.984131,-0.0335 -1.060057,-0.0769 -0.06157,-0.0352 -0.226871,-0.0641 -0.367345,-0.0641 -0.171394,0 -0.340758,-0.0429 -0.514881,-0.13032 l -0.259476,-0.13033 -0.295663,0.19156 -0.295667,0.19157 -2.588091,-7.5e-4 c -1.42345,-4.1e-4 -3.268426,-0.0115 -4.099946,-0.0246 -0.919305,-0.0145 -1.692634,-0.002 -1.9731,0.0314 l -0.461244,0.0552 -9.68e-4,0.30532 c -0.0017,0.50084 -0.0717,0.53491 -0.47562,0.23141 -0.172477,-0.1296 -0.348353,-0.21395 -0.49051,-0.23527 -0.202702,-0.0304 -0.858314,0.0489 -1.395463,0.16883 -0.418977,0.0935 -0.99422,0.44356 -0.99422,0.60497 0,0.0391 -0.05522,0.10732 -0.12271,0.15154 -0.143065,0.0937 -0.126407,0.28071 0.02501,0.28071 0.05244,0 0.131571,0.0553 0.175855,0.12288 0.04668,0.0712 0.15237,0.13636 0.251524,0.15496 0.09406,0.0176 0.27168,0.1003 0.394723,0.18368 0.123043,0.0834 0.259772,0.15202 0.303844,0.15254 0.04407,5.8e-4 0.309286,0.11416 0.589368,0.25256 0.280078,0.1384 0.607597,0.27775 0.727814,0.30968 0.264094,0.0701 0.556076,0.2359 0.595225,0.33792 0.01573,0.041 0.08415,0.0745 0.152049,0.0745 0.0679,0 0.152167,0.0346 0.187258,0.0769 0.03509,0.0423 0.0945,0.0769 0.132028,0.0769 0.03753,0 0.236498,0.12639 0.442157,0.28088 0.20566,0.15448 0.402387,0.28133 0.437172,0.28187 0.09165,0.001 0.61712,0.26418 0.879337,0.43969 0.123805,0.0829 0.311033,0.19679 0.416068,0.25316 0.303853,0.16309 1.36684,0.89801 1.710104,1.18233 0.172535,0.14291 0.401364,0.3188 0.50851,0.39088 0.107148,0.0721 0.320602,0.24919 0.474344,0.39359 0.153742,0.1444 0.302336,0.26255 0.3302,0.26255 0.06147,0 0.464724,0.40158 0.543042,0.54079 0.03089,0.0549 0.124936,0.12289 0.208991,0.15108 0.243095,0.0815 0.519919,0.2915 0.658749,0.49968 0.07049,0.1057 0.166381,0.19218 0.213083,0.19218 0.102509,0 0.272371,0.14511 0.272371,0.23267 0,0.0347 0.05189,0.0985 0.11531,0.14174 0.179367,0.12243 0.50965,0.45168 0.678973,0.67685 0.137597,0.18298 0.269591,0.32107 0.550539,0.57597 0.04907,0.0445 0.138465,0.18267 0.198653,0.30701 0.06019,0.12434 0.175719,0.29864 0.256718,0.38732 0.081,0.0887 0.14728,0.17862 0.14728,0.19984 0,0.0212 0.08072,0.11204 0.179373,0.20181 0.09865,0.0898 0.179372,0.1915 0.179372,0.22606 0,0.0346 0.126504,0.18653 0.281124,0.3377 0.15462,0.15117 0.281461,0.29814 0.281872,0.32659 5.81e-4,0.0285 0.04499,0.0794 0.09906,0.11314 0.05407,0.0338 0.179783,0.18413 0.279359,0.33415 0.09957,0.15002 0.239832,0.32798 0.311678,0.39548 0.07789,0.0732 0.13064,0.17899 0.13064,0.26206 0,0.0766 0.03355,0.15221 0.07456,0.16794 0.04101,0.0157 0.124438,0.12775 0.185404,0.24892 0.06096,0.12117 0.223437,0.38672 0.361058,0.59012 0.137619,0.2034 0.250219,0.38935 0.250219,0.41322 0,0.0239 0.06919,0.10969 0.153748,0.19071 0.08456,0.081 0.153748,0.19126 0.153748,0.245 0,0.0552 0.04543,0.10959 0.104528,0.12505 0.117387,0.0307 0.254217,0.31334 0.254217,0.52512 0,0.0768 0.04612,0.18129 0.102499,0.23231 0.05637,0.051 0.1025,0.12025 0.1025,0.15385 0,0.0336 0.04612,0.11427 0.102497,0.17927 0.05637,0.065 0.102499,0.16078 0.102499,0.21284 0,0.0715 0.0385,0.0947 0.157115,0.0947 0.08642,0 0.200365,0.0231 0.253224,0.0514 0.05285,0.0283 0.333848,0.065 0.624432,0.0816 0.290583,0.0166 0.538102,0.0397 0.550038,0.0514 0.04161,0.0408 0.235178,-0.1204 0.32077,-0.26717 z M -26.24758,234.798 c -0.08939,-0.04 -0.187403,-0.11929 -0.21781,-0.1761 -0.07455,-0.1393 -0.06991,-0.35094 0.0088,-0.40094 0.160492,-0.10196 0.593708,-0.22159 0.802457,-0.22159 0.208051,0 0.336402,-0.0566 0.668846,-0.29495 0.01294,-0.009 0.03599,-0.12543 0.05125,-0.25814 0.0277,-0.24091 0.02807,-0.2413 0.239246,-0.25673 0.200646,-0.0147 0.221048,-0.002 0.397182,0.23749 0.141014,0.19209 0.185677,0.30274 0.185677,0.45995 0,0.30426 -0.170193,0.47656 -0.652065,0.66013 -0.219199,0.0835 -0.479264,0.18267 -0.577919,0.22037 -0.26358,0.10072 -0.714948,0.11593 -0.905642,0.0305 z m 14.452471,13.96039 c 0.07987,-9.7e-4 -0.07484,-0.0999 -0.157939,-0.10093 -0.03524,-3.9e-4 -0.06406,0.0363 -0.06406,0.0816 0,0.054 0.02787,0.0717 0.08106,0.0512 0.04459,-0.0171 0.108009,-0.0315 0.140937,-0.0319 z m -38.935068,-2.63557 c 0.148752,-0.10419 0.275007,-0.635 0.261479,-1.09933 -0.01021,-0.35032 -0.02196,-0.38698 -0.15608,-0.48687 -0.26932,-0.20057 -1.143399,-0.0816 -1.239447,0.16868 -0.04815,0.12548 -0.0807,1.255 -0.03785,1.31345 0.129353,0.17646 0.962866,0.25048 1.171898,0.10407 z m 0.224815,-4.13461 c 0,-0.0282 -0.02306,-0.037 -0.05125,-0.0196 -0.02819,0.0174 -0.05125,0.0547 -0.05125,0.0829 0,0.0282 0.02306,0.037 0.05125,0.0196 0.02819,-0.0174 0.05125,-0.0547 0.05125,-0.0829 z m -0.231982,-1.02377 c 0.178991,-0.17306 0.19635,-1.30807 0.02296,-1.50126 -0.06965,-0.0776 -0.947307,-0.0456 -1.114034,0.0406 -0.145706,0.0753 -0.150611,0.0908 -0.185658,0.58515 -0.04822,0.68022 -0.0095,0.8705 0.195741,0.96274 0.23152,0.10403 0.942503,0.0466 1.080992,-0.0873 z m -0.376687,-4.84222 c 0.104802,-0.0662 0.20495,-0.16567 0.222553,-0.22113 0.06696,-0.21098 0.01162,-1.20396 -0.07599,-1.36361 -0.12076,-0.22003 -0.529015,-0.33183 -0.770968,-0.21113 -0.09152,0.0456 -0.231512,0.083 -0.311093,0.083 -0.192679,0 -0.296263,0.16644 -0.321669,0.51688 -0.0186,0.25649 0.08245,0.89265 0.170249,1.07185 0.124126,0.25334 0.7661,0.32666 1.086923,0.12413 z m 17.900143,-0.90103 c 0.06479,-0.0925 0.09049,-0.0999 0.156654,-0.045 0.105647,0.0877 0.10125,0.009 -0.0061,-0.10989 -0.07429,-0.0821 -0.07624,-0.11109 -0.01519,-0.22518 0.05597,-0.10459 0.05737,-0.14836 0.0069,-0.21732 -0.03475,-0.0475 -0.07673,-0.1267 -0.0933,-0.17603 -0.03643,-0.10851 -0.171907,-0.12001 -0.171907,-0.0146 0,0.0413 -0.06683,0.1512 -0.148506,0.24423 -0.211821,0.24125 -0.235842,0.58124 -0.04368,0.61825 0.215365,0.0415 0.237578,0.0362 0.315131,-0.0745 z m -0.737938,-0.37621 c 0.03677,-0.0443 0.04176,-0.0769 0.01176,-0.0769 -0.02862,0 -0.06531,0.0346 -0.08154,0.0769 -0.01623,0.0423 -0.02152,0.0769 -0.01176,0.0769 0.0098,0 0.04645,-0.0346 0.08154,-0.0769 z m -13.632323,-0.74312 c 0,-0.0282 -0.01017,-0.0513 -0.0226,-0.0513 -0.01244,0 -0.03685,0.0231 -0.05428,0.0513 -0.01741,0.0282 -0.0072,0.0512 0.0226,0.0512 0.02985,0 0.05428,-0.0231 0.05428,-0.0512 z m 16.049819,-0.0848 c 0.05155,-0.0466 0.09381,-0.14467 0.09391,-0.21781 3.87e-4,-0.22516 0.171496,-0.4286 0.606986,-0.72142 0.229796,-0.15451 0.417809,-0.29326 0.417809,-0.30833 0,-0.0744 -2.759975,-0.0701 -2.849815,0.004 -0.04822,0.04 -0.0714,0.17238 -0.0714,0.40775 v 0.34849 l 0.192186,0.0615 c 0.105701,0.0338 0.238309,0.10315 0.294683,0.15401 0.09441,0.0852 0.525623,0.26512 0.76874,0.32078 0.227461,0.0521 0.457703,0.0313 0.546895,-0.0495 z m -3.032488,-0.0689 c 0,-0.0564 -0.02306,-0.1025 -0.05125,-0.1025 -0.02819,0 -0.05125,0.01 -0.05125,0.0214 0,0.0118 -0.014,0.0579 -0.03111,0.1025 -0.02041,0.0532 -0.0028,0.0811 0.05125,0.0811 0.04819,0 0.08236,-0.0425 0.08236,-0.10249 z m -0.01226,-0.8603 c 0.08797,-0.0785 0.144017,-0.16705 0.12454,-0.19669 -0.09939,-0.15124 -0.981992,-0.22926 -1.150083,-0.10166 -0.111491,0.0846 -0.110565,0.13021 0.0055,0.26909 0.110358,0.13209 0.201158,0.15834 0.574672,0.16612 0.244474,0.005 0.308416,-0.0146 0.445407,-0.13686 z m 6.775684,-0.57268 c 0.04146,-0.0262 0.05821,-0.0649 0.03722,-0.0858 -0.021,-0.021 -0.07716,8.1e-4 -0.12481,0.0485 -0.09263,0.0926 -0.03718,0.11629 0.08759,0.0374 z m -19.872327,-0.15575 c -0.01242,-0.0846 -0.04301,-0.15375 -0.068,-0.15375 -0.05271,0 -0.06189,0.2227 -0.01127,0.27333 0.07202,0.072 0.100975,0.0283 0.07926,-0.11958 z m 5.793056,0.0598 c -0.102186,-0.10705 -0.142082,-0.10098 -0.09763,0.0149 0.0167,0.0435 0.06566,0.0791 0.108829,0.0791 0.0664,0 0.06468,-0.0145 -0.0112,-0.094 z m 0.857287,-0.28388 c -0.0012,-0.10516 -0.0046,-0.10454 -0.09849,0.0177 -0.05354,0.0697 -0.08557,0.14575 -0.07117,0.16904 0.04346,0.0703 0.170882,-0.0699 0.169662,-0.1867 z m -0.536978,0.12159 c -0.01741,-0.0282 -0.06627,-0.0512 -0.108548,-0.0512 -0.04228,0 -0.06262,0.0231 -0.0452,0.0512 0.01741,0.0282 0.06627,0.0513 0.108547,0.0513 0.04228,0 0.06262,-0.0231 0.0452,-0.0513 z m -12.479214,-0.0512 c 0,-0.0282 -0.01017,-0.0513 -0.0226,-0.0513 -0.01244,0 -0.03685,0.0231 -0.05427,0.0513 -0.01741,0.0282 -0.0072,0.0512 0.0226,0.0512 0.02985,0 0.05427,-0.0231 0.05427,-0.0512 z m 9.532376,0.0311 c 0,-0.0111 -0.03579,-0.0339 -0.07953,-0.0507 -0.04561,-0.0175 -0.06618,-0.009 -0.04823,0.0202 0.0301,0.0487 0.12776,0.072 0.12776,0.0305 z m 0.153748,-0.18486 c 0,-0.0282 -0.01017,-0.0513 -0.0226,-0.0513 -0.01243,0 -0.03685,0.0231 -0.05427,0.0513 -0.01741,0.0282 -0.0072,0.0512 0.0226,0.0512 0.02985,0 0.05427,-0.0231 0.05427,-0.0512 z m -12.556086,-0.27232 c 0,-0.0822 -0.01306,-0.0881 -0.07688,-0.0352 -0.04228,0.0351 -0.07614,0.1244 -0.07524,0.19846 0.0016,0.12947 0.0045,0.13083 0.07688,0.0352 0.04138,-0.0547 0.07524,-0.14402 0.07524,-0.19846 z m -0.367994,0.0545 c -0.009,-0.0634 -0.03944,-0.11531 -0.06762,-0.11531 -0.02819,0 -0.05862,0.0519 -0.06763,0.11531 -0.01127,0.0793 0.0098,0.11531 0.06763,0.11531 0.0578,0 0.07889,-0.036 0.06762,-0.11531 z m 4.517908,-0.44534 c 0.08136,-0.19641 0.03226,-0.27976 -0.117139,-0.19886 -0.06171,0.0334 -0.175622,0.0562 -0.253137,0.0506 -0.15349,-0.0111 -0.171347,0.0244 -0.07524,0.14969 0.146417,0.19083 0.366177,0.19014 0.44552,-0.001 z m 22.345997,-0.46433 c 0,-0.0282 -0.04612,-0.0513 -0.102499,-0.0513 -0.05637,0 -0.102497,0.0231 -0.102497,0.0513 0,0.0282 0.04612,0.0512 0.102497,0.0512 0.05638,0 0.102499,-0.0231 0.102499,-0.0512 z m -31.500913,27.35433 c -0.277353,-0.34606 -0.398399,-0.60387 -0.452065,-0.96285 -0.04403,-0.29449 0.111406,-0.68189 0.322103,-0.80281 0.168761,-0.0969 0.368782,-0.37955 0.368782,-0.52121 0,-0.076 0.05018,-0.10493 0.22867,-0.13169 0.265292,-0.0398 0.423407,0.0252 0.46508,0.19129 0.03286,0.13092 -0.08553,0.44814 -0.20392,0.54639 -0.04391,0.0365 -0.07984,0.12201 -0.07984,0.19015 0,0.0681 -0.04612,0.2143 -0.102497,0.3248 -0.129861,0.25455 -0.129226,0.2637 0.03031,0.43584 0.139472,0.15049 0.140377,0.17501 0.02338,0.63423 -0.132507,0.52008 -0.245532,0.53813 -0.600001,0.0959 z m -1.693921,0 c -0.201961,-0.26369 -0.417757,-0.82152 -0.474506,-1.22661 -0.08133,-0.58051 -0.01346,-0.87117 0.288889,-1.23729 0.0658,-0.0797 0.119634,-0.17385 0.119634,-0.20927 0,-0.11911 0.512171,-0.56114 1.60917,-1.38881 0.166272,-0.12545 0.345003,-0.24164 0.397182,-0.2582 0.05218,-0.0166 0.09487,-0.0485 0.09487,-0.0709 0,-0.0495 0.571081,-0.31104 0.679188,-0.31104 0.04235,0 0.100983,-0.0289 0.130291,-0.0642 0.02931,-0.0353 0.202194,-0.14058 0.384193,-0.23393 l 0.330906,-0.16972 0.287873,0.0837 c 0.299511,0.0871 0.442521,0.22102 0.442521,0.4145 0,0.25239 -0.622649,0.84091 -0.889676,0.84091 -0.04057,0 -0.196542,0.0922 -0.346596,0.205 -0.150054,0.11275 -0.309962,0.205 -0.355349,0.205 -0.04539,0 -0.09833,0.0158 -0.117646,0.0351 -0.01931,0.0193 -0.111454,0.0614 -0.204747,0.0934 -0.09329,0.0321 -0.414009,0.25266 -0.712707,0.49019 -0.430539,0.34237 -0.561386,0.47736 -0.631402,0.65139 -0.04858,0.12074 -0.113721,0.23605 -0.144765,0.25625 -0.179757,0.11694 -0.445155,0.72982 -0.441349,1.0192 0.0047,0.35719 -0.05285,0.80095 -0.113505,0.87531 -0.02874,0.0352 -0.104264,0.0641 -0.16783,0.0641 -0.06356,0 -0.137652,-0.0288 -0.164638,-0.0641 z m 3.174763,-0.031 c -0.07506,-0.0464 -0.222758,-0.39463 -0.183872,-0.43351 0.016,-0.016 0.03636,-0.17461 0.04523,-0.35245 0.01767,-0.35434 0.17188,-0.77728 0.301544,-0.82704 0.04534,-0.0174 0.150838,-0.018 0.234452,-10e-4 0.213483,0.0427 0.246239,0.25856 0.107429,0.70798 -0.05876,0.19022 -0.106827,0.3907 -0.106827,0.4455 0,0.24067 -0.262428,0.5445 -0.397955,0.46074 z m 5.882816,-5.58235 c -0.127277,-0.10307 -0.143443,-0.32663 -0.08333,-1.15239 0.0262,-0.35987 0.01526,-0.42862 -0.114118,-0.71749 -0.0787,-0.17572 -0.187052,-0.45278 -0.240786,-0.61569 -0.05373,-0.16291 -0.150914,-0.3462 -0.215956,-0.40731 l -0.118259,-0.11109 -0.112794,0.11279 c -0.10791,0.10791 -0.109221,0.12 -0.03029,0.27918 0.145828,0.2941 0.100485,1.422 -0.05716,1.422 -0.112033,0 -0.212708,-0.0737 -0.304288,-0.2229 -0.133298,-0.21709 -0.360837,-0.93372 -0.384286,-1.2103 -0.03188,-0.37605 0.07729,-0.92703 0.235037,-1.18619 0.0791,-0.12995 0.143825,-0.28147 0.143825,-0.33669 0,-0.0552 0.05189,-0.14832 0.115311,-0.20689 0.06342,-0.0586 0.181598,-0.19903 0.262616,-0.31213 0.131763,-0.18395 0.181294,-0.21206 0.469414,-0.26643 0.381115,-0.0719 0.499656,-0.0442 0.581782,0.13606 0.0491,0.10775 0.04504,0.18166 -0.02087,0.38008 -0.07324,0.2205 -0.07373,0.26197 -0.0047,0.39547 0.0573,0.11081 0.07607,0.31256 0.07301,0.78486 -0.0044,0.68321 0.03928,0.88155 0.315474,1.43147 0.197026,0.39228 0.229726,0.57411 0.135885,0.75558 -0.04251,0.0822 -0.09242,0.26263 -0.110909,0.40092 -0.04095,0.30632 -0.165775,0.57575 -0.310615,0.67046 -0.09417,0.0616 -0.12276,0.0586 -0.223991,-0.0234 z m 6.609983,-7.78598 c -0.169322,-0.0616 -0.358745,-0.29256 -0.358745,-0.43738 0,-0.20356 0.272919,-0.31849 0.661149,-0.27843 0.19192,0.0198 0.32224,0.006 0.4225,-0.0463 0.07974,-0.0412 0.25818,-0.071 0.396539,-0.0661 0.189317,0.007 0.286302,-0.0184 0.39196,-0.10154 0.07722,-0.0607 0.189178,-0.11055 0.248798,-0.11069 0.05962,-1.6e-4 0.200648,-0.0571 0.313398,-0.12653 0.112748,-0.0694 0.23453,-0.12698 0.270625,-0.12786 0.0361,-9.7e-4 0.229971,-0.0996 0.43083,-0.21941 0.351078,-0.20938 0.831361,-0.71639 0.930947,-0.98275 0.0203,-0.0543 0.03771,-0.3809 0.03869,-0.72581 0.0014,-0.47146 -0.01811,-0.6656 -0.07839,-0.78216 -0.08361,-0.16168 -0.151206,-0.18312 -0.747086,-0.23691 -0.126842,-0.0114 -0.368995,-0.0698 -0.538117,-0.12965 -0.357449,-0.12651 -0.327908,-0.1232 -0.691867,-0.0776 -0.265652,0.0333 -0.294404,0.0256 -0.499682,-0.13382 -0.119794,-0.093 -0.217809,-0.20898 -0.217809,-0.25766 0,-0.0487 -0.0257,-0.10439 -0.05711,-0.1238 -0.19844,-0.12264 0.232731,-0.85623 0.805615,-1.37067 0.267176,-0.23992 0.878737,-0.59881 1.020389,-0.59881 0.03862,0 0.151621,-0.048 0.25111,-0.10672 0.293573,-0.17322 1.166054,-0.29315 1.362449,-0.18729 0.106549,0.0574 0.125592,0.10094 0.113092,0.25841 -0.01461,0.18408 -0.01019,0.18935 0.158982,0.18935 0.240424,0 0.517781,0.19494 0.539053,0.37887 0.01226,0.10593 -0.02303,0.18383 -0.131128,0.28952 -0.208336,0.20369 -0.863284,0.52415 -0.989419,0.48411 -0.06486,-0.0206 -0.111485,-0.005 -0.130119,0.0436 -0.03743,0.0976 -0.484311,0.29014 -0.673231,0.29014 -0.08011,0 -0.199375,-0.0376 -0.265031,-0.0836 -0.101303,-0.071 -0.114664,-0.11307 -0.08826,-0.27819 0.0226,-0.14134 0.0089,-0.21684 -0.05024,-0.27594 -0.0889,-0.0889 -0.03794,-0.11703 -0.618499,0.34145 -0.117122,0.0925 -0.243336,0.22238 -0.280476,0.28863 -0.05919,0.10559 -0.05541,0.12932 0.03056,0.19219 0.05395,0.0394 0.151439,0.0717 0.216646,0.0717 0.06521,0 0.33178,0.0557 0.592384,0.12372 0.260605,0.068 0.577606,0.13908 0.704449,0.15786 0.126842,0.0188 0.303556,0.0593 0.3927,0.09 0.128769,0.0443 0.208113,0.0382 0.386083,-0.0297 0.123202,-0.0471 0.253672,-0.0856 0.289932,-0.0856 0.03626,0 0.166485,-0.0692 0.289393,-0.15375 0.122905,-0.0846 0.247333,-0.15375 0.276508,-0.15375 0.02917,0 0.129751,-0.0674 0.223501,-0.14966 0.09375,-0.0823 0.296346,-0.20937 0.450215,-0.28236 0.529046,-0.25092 0.98234,-0.5565 1.280829,-0.86344 0.253212,-0.26038 0.297405,-0.33333 0.288287,-0.47585 -0.0059,-0.0926 -0.05053,-0.21226 -0.09913,-0.26597 -0.0486,-0.0537 -0.08836,-0.13177 -0.08836,-0.17349 0,-0.0417 -0.03386,-0.12063 -0.07524,-0.17534 -0.04138,-0.0547 -0.07598,-0.20145 -0.07688,-0.32608 -0.0015,-0.20271 0.02278,-0.24997 0.229893,-0.44843 0.143424,-0.13742 0.27898,-0.22184 0.356244,-0.22184 0.153425,0 0.649236,-0.12647 0.78895,-0.20124 0.13046,-0.0698 0.445024,-0.071 0.573597,-0.002 0.05423,0.029 0.132823,0.11895 0.174654,0.19985 0.06685,0.12927 0.06695,0.15462 7.75e-4,0.20952 -0.04139,0.0344 -0.120393,0.0507 -0.175566,0.0362 -0.05517,-0.0144 -0.107185,-0.0104 -0.115584,0.009 -0.0084,0.0194 -0.106276,0.0908 -0.21751,0.1587 -0.111231,0.0679 -0.278433,0.19042 -0.371557,0.27219 -0.157843,0.13859 -0.169318,0.17048 -0.169318,0.47059 0,0.17706 0.03083,0.39525 0.06851,0.48486 0.05606,0.13331 0.05677,0.2082 0.0039,0.41191 -0.03552,0.13694 -0.09223,0.30265 -0.126016,0.36826 -0.107859,0.20942 -0.985178,0.96489 -1.120519,0.96489 -0.02313,0 -0.102478,0.0475 -0.17632,0.10561 -0.07384,0.0581 -0.394058,0.19854 -0.711589,0.31213 -0.942501,0.33715 -0.966037,0.34769 -1.194907,0.53523 -0.239626,0.19636 -0.245813,0.22205 -0.30119,1.25075 -0.01832,0.34053 -0.09744,0.6317 -0.208864,0.76874 -0.03438,0.0423 -0.127826,0.19218 -0.207662,0.33312 -0.07984,0.14094 -0.187167,0.30237 -0.238513,0.35875 -0.05134,0.0564 -0.175961,0.20002 -0.276922,0.31921 -0.190125,0.22445 -0.358557,0.33816 -0.967988,0.65351 -0.407276,0.21074 -1.293015,0.41183 -1.641161,0.37259 -0.132941,-0.015 -0.247972,0.002 -0.307571,0.0457 -0.09301,0.068 -0.536678,0.0896 -0.690608,0.0335 z m 4.392412,-0.57975 c -0.215075,-0.16918 -0.189541,-0.38865 0.08432,-0.72478 0.203896,-0.25026 0.582491,-0.50438 0.751441,-0.50438 0.04781,0 0.04283,-0.026 -0.01782,-0.0931 -0.12189,-0.13469 -0.156676,-0.37543 -0.07096,-0.49106 0.100872,-0.13609 0.319867,-0.073 0.420219,0.12106 0.106235,0.20544 0.09803,0.28587 -0.04032,0.39527 -0.09559,0.0756 -0.114593,0.13251 -0.0996,0.2984 0.01505,0.16653 -0.01569,0.25757 -0.163747,0.48514 -0.100244,0.15408 -0.182264,0.29665 -0.182264,0.31682 0,0.0575 -0.274527,0.23842 -0.415339,0.27377 -0.08817,0.0221 -0.169789,-0.002 -0.265933,-0.0772 z m -4.377329,-0.85875 c -0.151764,-0.11888 -0.21928,-0.31609 -0.155863,-0.45528 0.06466,-0.14192 0.261111,-0.23796 0.832647,-0.40706 0.253683,-0.0751 0.495836,-0.16585 0.538117,-0.20176 0.04228,-0.0359 0.217628,-0.13643 0.389661,-0.22339 0.368325,-0.18616 0.580099,-0.38271 0.618327,-0.57385 0.0419,-0.20949 0.292337,-0.45658 0.462542,-0.45636 0.179458,2e-4 0.476945,0.17653 0.476945,0.28264 0,0.12511 -0.251589,0.58899 -0.388032,0.71544 -0.06812,0.0631 -0.286231,0.29676 -0.484695,0.51918 -0.320572,0.35927 -0.624012,0.5937 -0.949257,0.73335 -0.103255,0.0443 -0.923731,0.15859 -1.124852,0.15664 -0.05638,-5.8e-4 -0.153367,-0.0408 -0.21554,-0.0896 z m 6.113885,-5.85686 c -0.101136,-0.0888 -0.228026,-0.26125 -0.281977,-0.38321 -0.07676,-0.17354 -0.171723,-0.26826 -0.436691,-0.4356 -0.186229,-0.11762 -0.360063,-0.25396 -0.3863,-0.30298 -0.05019,-0.0938 -0.08893,-0.50248 -0.04994,-0.52684 0.01251,-0.008 0.05967,-0.0373 0.104789,-0.0655 0.04512,-0.0282 0.180155,-0.12546 0.300073,-0.21615 0.262719,-0.19869 0.687143,-0.36457 1.104117,-0.43153 0.169124,-0.0272 0.345961,-0.0703 0.392973,-0.0958 0.04701,-0.0256 0.312228,-0.0916 0.589368,-0.14675 0.795933,-0.15842 2.353331,-0.10737 2.861359,0.0938 0.05637,0.0223 0.167005,0.0665 0.245846,0.0982 0.07884,0.0317 0.196344,0.0576 0.261117,0.0576 0.121046,0 0.287402,0.1422 0.287402,0.24567 0,0.13607 -0.208493,0.1756 -0.61365,0.11636 -0.256743,-0.0375 -0.711041,-0.0459 -1.288039,-0.0236 -0.49027,0.0189 -1.064366,0.0394 -1.275769,0.0456 -0.211404,0.006 -0.476155,0.03 -0.588337,0.0529 -0.264319,0.054 -0.996353,0.41548 -1.032617,0.50998 -0.0154,0.0401 0.04216,0.16063 0.127918,0.26776 0.1695,0.21172 0.168173,0.16041 0.0259,1.00118 -0.05,0.2955 -0.131924,0.32825 -0.347547,0.13893 z m 5.78161,-0.0897 c -0.326188,-0.0898 -0.456926,-0.27405 -0.415182,-0.58527 0.01519,-0.11324 0.05015,-0.22842 0.07769,-0.25596 0.0326,-0.0326 0.213646,-0.0288 0.518746,0.0108 0.257769,0.0335 0.508039,0.0446 0.556152,0.0246 0.04812,-0.02 0.318101,-0.0406 0.599973,-0.0458 0.281871,-0.005 0.560429,-0.0358 0.619015,-0.0679 0.08603,-0.0472 0.138585,-0.039 0.273215,0.0429 l 0.166693,0.10138 -0.126075,0.21603 c -0.235647,0.40379 -0.718341,0.61782 -1.280918,0.56795 -0.174993,-0.0155 -0.41042,-0.008 -0.523168,0.0174 -0.143914,0.032 -0.282813,0.0242 -0.466137,-0.0262 z"
       id="path3083"
       inkscape:connector-curvature="0" />
  </g>
</svg>
