<?xml version="1.0" encoding="UTF-8" standalone="no"?>
<!-- Created with Inkscape (http://www.inkscape.org/) -->
<svg xmlns:dc="http://purl.org/dc/elements/1.1/" xmlns:cc="http://creativecommons.org/ns#" xmlns:rdf="http://www.w3.org/1999/02/22-rdf-syntax-ns#" xmlns:svg="http://www.w3.org/2000/svg" xmlns="http://www.w3.org/2000/svg" xmlns:sodipodi="http://sodipodi.sourceforge.net/DTD/sodipodi-0.dtd" xmlns:inkscape="http://www.inkscape.org/namespaces/inkscape" width="1645.0944mm" height="231.95139mm" viewBox="0 0 5829.0745 821.87498" id="svg2" version="1.1" inkscape:version="0.91 r13725" sodipodi:docname="dice icons.svg">
  <defs id="defs4"/>
  <sodipodi:namedview id="base" pagecolor="#ffffff" bordercolor="#666666" borderopacity="1.0" inkscape:pageopacity="0.0" inkscape:pageshadow="2" inkscape:zoom="0.08" inkscape:cx="2610.7107" inkscape:cy="2522.3282" inkscape:document-units="px" inkscape:current-layer="layer1" showgrid="false" showguides="true" inkscape:guide-bbox="true" inkscape:snap-bbox="true" inkscape:bbox-paths="true" inkscape:bbox-nodes="true" inkscape:window-width="1920" inkscape:window-height="1017" inkscape:window-x="-8" inkscape:window-y="-8" inkscape:window-maximized="1" fit-margin-top="0" fit-margin-left="0" fit-margin-right="0" fit-margin-bottom="0"/>
  <metadata id="metadata7">
    <rdf:RDF>
      <cc:Work rdf:about="">
        <dc:format>image/svg+xml</dc:format>
        <dc:type rdf:resource="http://purl.org/dc/dcmitype/StillImage"/>
        <dc:title/>
      </cc:Work>
    </rdf:RDF>
  </metadata>
  <g inkscape:label="Layer 1" inkscape:groupmode="layer" id="layer1" transform="translate(4886.8872,-1514.8622)">
    <path id="circle5618" style="color:#000000;clip-rule:nonzero;display:inline;overflow:visible;visibility:visible;opacity:1;isolation:auto;mix-blend-mode:normal;color-interpolation:sRGB;color-interpolation-filters:linearRGB;solid-color:#000000;solid-opacity:1;fill:#000000;fill-opacity:1;fill-rule:nonzero;stroke:none;stroke-width:1;stroke-linecap:butt;stroke-linejoin:miter;stroke-miterlimit:4;stroke-dasharray:none;stroke-dashoffset:0;stroke-opacity:1;color-rendering:auto;image-rendering:auto;shape-rendering:auto;text-rendering:auto;enable-background:accumulate" d="m 859.84365,1687.494 c -10e-6,49.8646 -40.42329,90.2879 -90.28792,90.2879 -49.86464,0 -90.28792,-40.4233 -90.28793,-90.2879 1e-5,-49.8646 40.42329,-90.2879 90.28793,-90.2879 49.86463,0 90.28791,40.4233 90.28792,90.2879 z m -238.30572,0 c -10e-6,49.8646 -40.42329,90.2879 -90.28793,90.2879 -49.86464,0 -90.28792,-40.4233 -90.28793,-90.2879 1e-5,-49.8646 40.42329,-90.2879 90.28793,-90.2879 49.86464,0 90.28792,40.4233 90.28793,90.2879 z m -238.30579,0 c -1e-5,49.8646 -40.42329,90.2879 -90.28793,90.2879 -49.86463,0 -90.28791,-40.4233 -90.28792,-90.2879 10e-6,-49.8646 40.42329,-90.2879 90.28792,-90.2879 49.86464,0 90.28792,40.4233 90.28793,90.2879 z m 476.61151,476.6115 c -10e-6,49.8646 -40.42329,90.2879 -90.28792,90.2879 -49.86464,0 -90.28792,-40.4233 -90.28793,-90.2879 -4e-5,-49.8647 40.42325,-90.288 90.28793,-90.288 49.86467,0 90.28796,40.4233 90.28792,90.288 z m -238.30572,0 c -10e-6,49.8646 -40.42329,90.2879 -90.28793,90.2879 -49.86464,0 -90.28792,-40.4233 -90.28793,-90.2879 -4e-5,-49.8647 40.42325,-90.288 90.28793,-90.288 49.86468,0 90.28797,40.4233 90.28793,90.288 z m -238.30579,0 c -1e-5,49.8646 -40.42329,90.2879 -90.28793,90.2879 -49.86463,0 -90.28791,-40.4233 -90.28792,-90.2879 -4e-5,-49.8647 40.42325,-90.288 90.28792,-90.288 49.86468,0 90.28797,40.4233 90.28793,90.288 z m -262.91964,-609.2433 0,741.875 c 0,22.16 17.84,40 40,40 l 741.875,0 c 22.16,0 40,-17.84 40,-40 l 0,-741.875 c 0,-22.16 -17.84,-40 -40,-40 l -741.875,0 c -22.16,0 -40,17.84 -40,40 z" inkscape:connector-curvature="0" sodipodi:nodetypes="sssssssssssssssssssssssssssssssssssssss"/>
    <path id="circle5636" style="color:#000000;clip-rule:nonzero;display:inline;overflow:visible;visibility:visible;opacity:1;isolation:auto;mix-blend-mode:normal;color-interpolation:sRGB;color-interpolation-filters:linearRGB;solid-color:#000000;solid-opacity:1;fill:#000000;fill-opacity:1;fill-rule:nonzero;stroke:none;stroke-width:1;stroke-linecap:butt;stroke-linejoin:miter;stroke-miterlimit:4;stroke-dasharray:none;stroke-dashoffset:0;stroke-opacity:1;color-rendering:auto;image-rendering:auto;shape-rendering:auto;text-rendering:auto;enable-background:accumulate" d="m -410.39603,1925.7997 c -1e-5,49.8646 -40.42329,90.2879 -90.28793,90.2879 -49.86464,0 -90.28792,-40.4233 -90.28793,-90.2879 10e-6,-49.8646 40.42329,-90.2879 90.28793,-90.2879 49.86464,0 90.28792,40.4233 90.28793,90.2879 z m 238.30572,-238.3057 c -1e-5,49.8646 -40.42329,90.2879 -90.28792,90.2879 -49.86464,0 -90.28792,-40.4233 -90.28793,-90.2879 10e-6,-49.8646 40.42329,-90.2879 90.28793,-90.2879 49.86463,0 90.28791,40.4233 90.28792,90.2879 z m -476.61151,0 c -10e-6,49.8646 -40.42329,90.2879 -90.28793,90.2879 -49.86463,0 -90.28791,-40.4233 -90.28792,-90.2879 10e-6,-49.8646 40.42329,-90.2879 90.28792,-90.2879 49.86464,0 90.28792,40.4233 90.28793,90.2879 z m 476.61151,476.6115 c -1e-5,49.8646 -40.42329,90.2879 -90.28792,90.2879 -49.86464,0 -90.28792,-40.4233 -90.28793,-90.2879 -4e-5,-49.8647 40.42325,-90.288 90.28793,-90.288 49.86467,0 90.28796,40.4233 90.28792,90.288 z m -476.61151,0 c -10e-6,49.8646 -40.42329,90.2879 -90.28793,90.2879 -49.86463,0 -90.28791,-40.4233 -90.28792,-90.2879 -4e-5,-49.8647 40.42325,-90.288 90.28792,-90.288 49.86468,0 90.28797,40.4233 90.28793,90.288 z m -262.91964,-609.2433 0,741.875 c 0,22.16 17.84,40 40,40 l 741.875,0 c 22.16,0 40,-17.84 40,-40 l 0,-741.875 c 0,-22.16 -17.84,-40 -40,-40 l -741.875,0 c -22.16,0 -40,17.84 -40,40 z" inkscape:connector-curvature="0" sodipodi:nodetypes="ssssssssssssssssssssssssssssssssss"/>
    <path id="circle5650" style="color:#000000;clip-rule:nonzero;display:inline;overflow:visible;visibility:visible;opacity:1;isolation:auto;mix-blend-mode:normal;color-interpolation:sRGB;color-interpolation-filters:linearRGB;solid-color:#000000;solid-opacity:1;fill:#000000;fill-opacity:1;fill-rule:nonzero;stroke:none;stroke-width:1;stroke-linecap:butt;stroke-linejoin:miter;stroke-miterlimit:4;stroke-dasharray:none;stroke-dashoffset:0;stroke-opacity:1;color-rendering:auto;image-rendering:auto;shape-rendering:auto;text-rendering:auto;enable-background:accumulate" d="m -1109.0068,1687.494 c 0,49.8646 -40.4233,90.2879 -90.2879,90.2879 -49.8646,0 -90.2879,-40.4233 -90.2879,-90.2879 0,-49.8646 40.4233,-90.2879 90.2879,-90.2879 49.8646,0 90.2879,40.4233 90.2879,90.2879 z m -476.6115,0 c 0,49.8647 -40.4233,90.2879 -90.288,90.2879 -49.8646,0 -90.2879,-40.4233 -90.2879,-90.2879 0,-49.8646 40.4233,-90.2879 90.2879,-90.2879 49.8647,0 90.288,40.4232 90.288,90.2879 z m 476.6115,476.6115 c 0,49.8646 -40.4233,90.2879 -90.2879,90.2879 -49.8646,0 -90.2879,-40.4233 -90.2879,-90.2879 0,-49.8647 40.4232,-90.288 90.2879,-90.288 49.8647,0 90.2879,40.4233 90.2879,90.288 z m -476.6115,0 c 0,49.8647 -40.4233,90.2879 -90.288,90.2879 -49.8646,0 -90.2879,-40.4233 -90.2879,-90.2879 0,-49.8647 40.4232,-90.288 90.2879,-90.288 49.8647,0 90.288,40.4233 90.288,90.288 z m -262.9197,-609.2433 0,741.875 c 0,22.16 17.84,40 40,40 l 741.875,0 c 22.16,0 40,-17.84 40,-40 l 0,-741.875 c 0,-22.16 -17.84,-40 -40,-40 l -741.875,0 c -22.16,0 -40,17.84 -40,40 z" inkscape:connector-curvature="0" sodipodi:nodetypes="sssssssssssssssssssssssssssss"/>
    <path id="circle5668" style="color:#000000;clip-rule:nonzero;display:inline;overflow:visible;visibility:visible;opacity:1;isolation:auto;mix-blend-mode:normal;color-interpolation:sRGB;color-interpolation-filters:linearRGB;solid-color:#000000;solid-opacity:1;fill:#000000;fill-opacity:1;fill-rule:nonzero;stroke:none;stroke-width:1;stroke-linecap:butt;stroke-linejoin:miter;stroke-miterlimit:4;stroke-dasharray:none;stroke-dashoffset:0;stroke-opacity:1;color-rendering:auto;image-rendering:auto;shape-rendering:auto;text-rendering:auto;enable-background:accumulate" d="m -2312.9552,1925.7997 c 0,49.8647 -40.4233,90.2879 -90.288,90.2879 -49.8646,0 -90.2879,-40.4233 -90.2879,-90.2879 0,-49.8646 40.4233,-90.2879 90.2879,-90.2879 49.8647,0 90.288,40.4232 90.288,90.2879 z m -238.3059,-238.3057 c 0,49.8647 -40.4233,90.2879 -90.288,90.2879 -49.8646,0 -90.2879,-40.4233 -90.2879,-90.2879 0,-49.8646 40.4233,-90.2879 90.2879,-90.2879 49.8647,0 90.288,40.4232 90.288,90.2879 z m 476.6115,476.6115 c 0,49.8646 -40.4233,90.2879 -90.2879,90.2879 -49.8646,0 -90.2879,-40.4233 -90.2879,-90.2879 0,-49.8647 40.4232,-90.288 90.2879,-90.288 49.8647,0 90.2879,40.4233 90.2879,90.288 z m -739.5311,-609.2433 0,741.875 c 0,22.16 17.84,40 40,40 l 741.875,0 c 22.16,0 40,-17.84 40,-40 l 0,-741.875 c 0,-22.16 -17.84,-40 -40,-40 l -741.875,0 c -22.16,0 -40,17.84 -40,40 z" inkscape:connector-curvature="0" sodipodi:nodetypes="ssssssssssssssssssssssss"/>
    <path id="circle5678" style="color:#000000;clip-rule:nonzero;display:inline;overflow:visible;visibility:visible;opacity:1;isolation:auto;mix-blend-mode:normal;color-interpolation:sRGB;color-interpolation-filters:linearRGB;solid-color:#000000;solid-opacity:1;fill:#000000;fill-opacity:1;fill-rule:nonzero;stroke:none;stroke-width:1;stroke-linecap:butt;stroke-linejoin:miter;stroke-miterlimit:4;stroke-dasharray:none;stroke-dashoffset:0;stroke-opacity:1;color-rendering:auto;image-rendering:auto;shape-rendering:auto;text-rendering:auto;enable-background:accumulate" d="m -3688.9509,1597.2061 c -49.8647,0 -90.288,40.4232 -90.288,90.2879 0,49.8647 40.4233,90.2879 90.288,90.2879 49.8646,0 90.2879,-40.4233 90.2879,-90.2879 0,-49.8646 -40.4233,-90.2879 -90.2879,-90.2879 z m 476.6115,476.6114 c -49.8647,0 -90.2879,40.4233 -90.2879,90.288 0,49.8646 40.4233,90.2879 90.2879,90.2879 49.8647,0 90.288,-40.4232 90.288,-90.2879 0,-49.8647 -40.4233,-90.288 -90.288,-90.288 z m -609.2431,-558.9553 741.875,0 c 22.16,0 40,17.84 40,40 l 0,741.875 c 0,22.16 -17.84,40 -40,40 l -741.875,0 c -22.16,0 -40,-17.84 -40,-40 l 0,-741.875 c 0,-22.16 17.84,-40 40,-40 z" inkscape:connector-curvature="0" sodipodi:nodetypes="sssssssssssssssssss"/>
    <path id="circle5700" style="color:#000000;clip-rule:nonzero;display:inline;overflow:visible;visibility:visible;opacity:1;isolation:auto;mix-blend-mode:normal;color-interpolation:sRGB;color-interpolation-filters:linearRGB;solid-color:#000000;solid-opacity:1;fill:#000000;fill-opacity:1;fill-rule:nonzero;stroke:none;stroke-width:1;stroke-linecap:butt;stroke-linejoin:miter;stroke-miterlimit:4;stroke-dasharray:none;stroke-dashoffset:0;stroke-opacity:1;color-rendering:auto;image-rendering:auto;shape-rendering:auto;text-rendering:auto;enable-background:accumulate" d="m -4475.9497,1835.5118 c -49.8646,0 -90.2879,40.4233 -90.2879,90.2879 0,49.8646 40.4233,90.2879 90.2879,90.2879 49.8646,0 90.2879,-40.4233 90.2879,-90.2879 0,-49.8646 -40.4233,-90.2879 -90.2879,-90.2879 z m -370.9375,-320.6496 741.875,0 c 22.16,0 40,17.84 40,40 l 0,741.875 c 0,22.16 -17.84,40 -40,40 l -741.875,0 c -22.16,0 -40,-17.84 -40,-40 l 0,-741.875 c 0,-22.16 17.84,-40 40,-40 z" inkscape:connector-curvature="0" sodipodi:nodetypes="ssssssssssssss"/>
  </g>
</svg>